<?xml version="1.0" encoding="utf-8"?>
<!-- Generator: Adobe Illustrator 19.0.0, SVG Export Plug-In . SVG Version: 6.00 Build 0)  -->
<svg version="1.1" id="图层_1" xmlns="http://www.w3.org/2000/svg" xmlns:xlink="http://www.w3.org/1999/xlink" x="0px" y="0px"
	 viewBox="-183 98.9 200 200" style="enable-background:new -183 98.9 200 200;" xml:space="preserve">
<style type="text/css">
	.st0{fill:#DDDDDD;}
</style>
<path class="st0" d="M-83,276.8c-43,0-77.9-35-77.9-77.9s35-77.9,77.9-77.9s77.9,35,77.9,77.9S-40,276.8-83,276.8z M-83,127.6
	c-39.3,0-71.2,31.9-71.2,71.2S-122.3,270-83,270s71.2-31.9,71.2-71.2C-11.8,159.6-43.7,127.6-83,127.6z"/>
<path class="st0" d="M-113,232.8L-113,232.8c-1.6-1.6-1.6-4.1,0-5.7l60.1-60.1c1.6-1.6,4.1-1.6,5.7,0l0,0c1.6,1.6,1.6,4.1,0,5.7
	l-60.1,60.1C-108.9,234.2-111.4,234.2-113,232.8z"/>
<path class="st0" d="M-49.6,232.8L-49.6,232.8c1.6-1.6,1.6-4.1,0-5.7l-60.1-60.1c-1.6-1.6-4.1-1.6-5.7,0l0,0c-1.6,1.6-1.6,4.1,0,5.7
	l60.1,60.1C-53.7,234.2-51.1,234.2-49.6,232.8z"/>
</svg>
