<?xml version="1.0" encoding="utf-8"?>
<!-- Generator: Adobe Illustrator 19.0.0, SVG Export Plug-In . SVG Version: 6.00 Build 0)  -->
<svg version="1.1" id="图层_1" xmlns="http://www.w3.org/2000/svg" xmlns:xlink="http://www.w3.org/1999/xlink" x="0px" y="0px"
	 viewBox="-183 98.9 200 200" style="enable-background:new -183 98.9 200 200;" xml:space="preserve">
<style type="text/css">
	.st0{fill:#FF4830;stroke:#FF4830;stroke-width:9;stroke-miterlimit:10;}
	.st1{fill:#FFFFFF;}
</style>
<circle class="st0" cx="-83" cy="198.9" r="87"/>
<g>
	<path class="st1" d="M-83.4,233.4L-83.4,233.4c-3.9,3.9-10.3,3.9-14.1,0l-31.8-31.8c-3.9-3.9-3.9-10.3,0-14.1l0,0
		c3.9-3.9,10.3-3.9,14.1,0l31.8,31.8C-79.5,223.2-79.5,229.5-83.4,233.4z"/>
	<path class="st1" d="M-30.4,166.3L-30.4,166.3c3.9,3.9,3.9,10.3,0,14.1l-53,53c-3.9,3.9-10.3,3.9-14.1,0l0,0
		c-3.9-3.9-3.9-10.3,0-14.1l53-53C-40.7,162.4-34.3,162.4-30.4,166.3z"/>
</g>
</svg>
