<?xml version="1.0" encoding="utf-8"?>
<!-- Generator: Adobe Illustrator 19.0.0, SVG Export Plug-In . SVG Version: 6.00 Build 0)  -->
<svg version="1.1" id="图层_1" xmlns="http://www.w3.org/2000/svg" xmlns:xlink="http://www.w3.org/1999/xlink" x="0px" y="0px"
	 viewBox="-183 98.9 200 200" style="enable-background:new -183 98.9 200 200;" xml:space="preserve">
<style type="text/css">
	.st0{fill:#FF4830;}
</style>
<path class="st0" d="M-83,290.4c-50.5,0-91.5-41-91.5-91.5s41-91.5,91.5-91.5s91.5,41,91.5,91.5S-32.5,290.4-83,290.4z M-83,116.3
	c-45.5,0-82.5,37-82.5,82.5s37,82.5,82.5,82.5s82.5-37,82.5-82.5S-37.5,116.3-83,116.3z"/>
<g>
	<path class="st0" d="M-84.6,233.4L-84.6,233.4c-3.9,3.9-10.3,3.9-14.1,0l-31.8-31.8c-3.9-3.9-3.9-10.3,0-14.1l0,0
		c3.9-3.9,10.3-3.9,14.1,0l31.8,31.8C-80.7,223.2-80.7,229.5-84.6,233.4z"/>
	<path class="st0" d="M-31.6,166.3L-31.6,166.3c3.9,3.9,3.9,10.3,0,14.1l-53,53c-3.9,3.9-10.3,3.9-14.1,0l0,0
		c-3.9-3.9-3.9-10.3,0-14.1l53-53C-41.9,162.4-35.5,162.4-31.6,166.3z"/>
</g>
</svg>
