<?xml version="1.0" encoding="utf-8"?>
<!-- Generator: Adobe Illustrator 19.0.0, SVG Export Plug-In . SVG Version: 6.00 Build 0)  -->
<svg version="1.1" id="隔离模式" xmlns="http://www.w3.org/2000/svg" xmlns:xlink="http://www.w3.org/1999/xlink" x="0px"
	 y="0px" viewBox="-183 98.9 200 200" style="enable-background:new -183 98.9 200 200;" xml:space="preserve">
<style type="text/css">
	.st0{fill:#999999;}
</style>
<path class="st0" d="M-83,278c-44,0-79.9-35.8-79.9-79.9s35.8-79.9,79.9-79.9s79.9,35.8,79.9,79.9S-39,278-83,278z M-83,131.6
	c-36.6,0-66.4,29.8-66.4,66.4s29.8,66.4,66.4,66.4s66.4-29.8,66.4-66.4S-46.4,131.6-83,131.6z"/>
<g>
	<path class="st0" d="M-82.3,241.6c-1.7,0-3.4-0.5-4.7-1.7c-1.5-1.2-2-2.9-2-4.9s0.7-3.4,2-4.7c1.2-1.2,2.9-2,4.9-2s3.4,0.7,4.7,2
		c1.2,1.2,2,2.9,2,4.7c0,2.2-0.7,3.7-2,4.9C-78.8,241.4-80.5,241.6-82.3,241.6z"/>
	<path class="st0" d="M-103.4,187.3c-1.5,0-2.5-0.5-3.4-1.2c-1-1-1.5-2.2-1.5-3.7s0.5-2.5,1.5-3.4c1-1,2.2-1.5,3.7-1.5
		s2.5,0.5,3.4,1.5c1,1,1.5,2.2,1.5,3.4c0,1.5-0.5,2.7-1.5,3.7C-100.9,186.9-101.9,187.3-103.4,187.3z"/>
	<path class="st0" d="M-82.5,225.2c-1.5,0-2.5-0.5-3.4-1.2c-1-1-1.5-2.2-1.5-3.7s0.5-2.5,1.5-3.4c1-1,2.2-1.5,3.7-1.5
		s2.5,0.5,3.4,1.5c1,1,1.5,2.2,1.5,3.4c0,1.5-0.5,2.7-1.5,3.7C-80.1,224.8-81,225.2-82.5,225.2z"/>
	<path class="st0" d="M-106.6,171.6c1.2-3.4,2.9-6.4,5.2-9.1c2.2-2.5,5.2-4.4,8.4-5.9c3.2-1.5,6.9-2.2,11.1-2.2
		c3.7,0,7.1,0.5,10.1,1.5c2.9,1,5.6,2.7,7.9,4.7c2.2,2,3.9,4.4,5.2,7.4s1.7,6.1,1.7,10.1c0,2.5-0.2,4.7-1,6.6
		c-0.5,2-1.5,3.7-2.2,5.2c-1,1.5-2,2.9-3.2,4.4c-1.2,1.2-2.5,2.7-3.7,3.9s-2.5,2.5-3.7,3.7s-2.2,2.5-3.2,3.9c-1,1.5-1.7,2.9-2.5,4.4
		c-0.5,1.7-1,3.4-1,5.4v4.7h-10.1v-5.6c0.2-3.2,0.7-6.1,1.7-8.4c1-2.2,2.5-4.4,3.9-6.1c1.5-1.7,3.2-3.4,4.9-4.9
		c1.7-1.5,3.2-3.2,4.7-4.9s2.7-3.4,3.4-5.6c1-2,1.2-4.4,1-7.4c-0.2-4.4-1.7-7.6-4.2-10.1s-5.9-3.7-10.1-3.7c-2.9,0-5.2,0.5-7.4,1.5
		c-2,1-3.7,2.5-5.2,4.2s-2.5,3.7-2.9,6.1c-0.7,2.5-1,4.9-1,7.6h-10.1C-108.5,178.8-107.8,175.1-106.6,171.6z"/>
</g>
</svg>
