<?xml version="1.0" encoding="utf-8"?>
<!-- Generator: Adobe Illustrator 19.0.0, SVG Export Plug-In . SVG Version: 6.00 Build 0)  -->
<svg version="1.1" id="隔离模式" xmlns="http://www.w3.org/2000/svg" xmlns:xlink="http://www.w3.org/1999/xlink" x="0px"
	 y="0px" viewBox="-183 98.9 200 200" style="enable-background:new -183 98.9 200 200;" xml:space="preserve">
<style type="text/css">
	.st0{fill:#999999;}
</style>
<path class="st0" d="M-111,182.1h-45.6v-6.5c0-0.9,0-2-0.1-3.2c-0.4-8.7-1.1-24.9,11.7-37.2c16-15.5,41-10.5,42.1-10.2l5.2,1.1v42.2
	c0,8.2-6.6,12.9-12.7,13.9L-111,182.1z M-143.8,169h31.6c0.5-0.2,1.2-0.5,1.3-0.7v-31.2c-6.5-0.4-17.7,0.2-25.1,7.4
	C-143.5,151.8-144,161.6-143.8,169z"/>
<path class="st0" d="M-38.6,236.4c0,13.4-10.9,24.3-24.3,24.3h-56.3c-13.4,0-24.3-10.9-24.3-24.3V162c0-13.4,10.9-24.3,24.3-24.3
	h56.3c13.4,0,24.3,10.9,24.3,24.3v3.1l13.1,0.1v-3.3c0-20.6-16.8-37.4-37.4-37.4h-56.3c-20.6,0-37.4,16.8-37.4,37.4v74.4
	c0,20.6,16.8,37.4,37.4,37.4h56.3c20.6,0,37.4-16.8,37.4-37.4v-19.4l-13.1-0.1C-38.6,216.8-38.6,236.4-38.6,236.4z"/>
<rect x="-41.4" y="157" transform="matrix(-0.6765 -0.7364 0.7364 -0.6765 -200.4223 297.4889)" class="st0" width="13.1" height="71.5"/>
<path class="st0" d="M-8.6,159.9l9,9.4c0,0,6.2-5.3,0.5-10.6C-3.9,154.2-8.6,159.9-8.6,159.9z"/>
<polygon class="st0" points="-68.5,215.8 -59.8,225.2 -73.3,229.4 "/>
</svg>
