<?xml version="1.0" encoding="utf-8"?>
<!-- Generator: Adobe Illustrator 19.0.0, SVG Export Plug-In . SVG Version: 6.00 Build 0)  -->
<svg version="1.1" id="隔离模式" xmlns="http://www.w3.org/2000/svg" xmlns:xlink="http://www.w3.org/1999/xlink" x="0px"
	 y="0px" viewBox="-183 98.9 200 200" style="enable-background:new -183 98.9 200 200;" xml:space="preserve">
<style type="text/css">
	.st0{fill:#999999;}
</style>
<path class="st0" d="M-11.2,202.6c-1.7,0-3.5-0.7-4.8-2c-27.2-27.9-58.9-57.9-67.5-62.6c-8.6,4.6-39.8,34-66.6,61.3
	c-2.6,2.6-6.8,2.7-9.4,0.1c-2.6-2.6-2.7-6.8-0.1-9.4c64.5-65.6,73.3-65.6,76.1-65.6c2.9,0,11.7,0,77.1,67c2.6,2.6,2.5,6.8-0.1,9.4
	C-7.8,202-9.5,202.6-11.2,202.6z"/>
<path class="st0" d="M-45.5,273.3h-21.1c-3.7,0-6.7-3-6.7-6.7v-40.1c0-1.4-0.3-1.9-0.4-2c-0.1-0.1-0.8-0.3-1.3-0.3
	c-0.2,0-0.3,0-0.6,0h-16.6c-1,0-1.6,0.2-1.7,0.4c-0.4,0.4-0.5,1.5-0.5,1.5c0,0.1,0,0.2,0,0.3v40.1c0,3.7-3,6.7-6.7,6.7h-21.3
	c-12.9,0-18.2-11.9-19.2-18.3c-0.1-0.3-0.1-0.7-0.1-1v-42.6c0-3.7,3-6.7,6.7-6.7s6.7,3,6.7,6.7v41.9c0.3,1.6,1.8,6.6,6,6.6h14.6
	v-33.4c0-1.5,0.1-6.9,4.1-11.1c2-2,5.5-4.5,11.4-4.5h16.4c1.8-0.1,6.9-0.1,11,3.6c2.2,2,4.8,5.6,4.8,11.9V260h14.2
	c2.3-0.2,6.2-1.2,6.2-6v-42.6c0-3.7,3-6.7,6.7-6.7s6.7,3,6.7,6.7V254c0,13.5-11.4,19-19,19.3C-45.3,273.3-45.4,273.3-45.5,273.3z"/>
</svg>
