<?xml version="1.0" encoding="utf-8"?>
<!-- Generator: Adobe Illustrator 19.0.0, SVG Export Plug-In . SVG Version: 6.00 Build 0)  -->
<svg version="1.1" id="隔离模式" xmlns="http://www.w3.org/2000/svg" xmlns:xlink="http://www.w3.org/1999/xlink" x="0px"
	 y="0px" viewBox="-183 98.9 200 200" style="enable-background:new -183 98.9 200 200;" xml:space="preserve">
<style type="text/css">
	.st0{fill:#999999;}
</style>
<path class="st0" d="M-88.5,215.1c-25.8,0-46.8-21-46.8-46.8c0-25.8,21-46.8,46.8-46.8s46.8,21,46.8,46.8
	C-41.7,194.1-62.7,215.1-88.5,215.1z M-88.5,134c-18.9,0-34.3,15.4-34.3,34.3c0,18.9,15.4,34.3,34.3,34.3s34.3-15.4,34.3-34.3
	C-54.2,149.4-69.6,134-88.5,134z"/>
<path class="st0" d="M-88.5,204c-60.5,0-79.9,52-80.1,52.5c-1.2,3.2,0.5,6.8,3.8,8c3.2,1.2,6.8-0.5,8-3.7
	c0.7-1.8,16.8-44.3,68.4-44.3c11.6,0,21.4,2.2,29.7,5.5l9.6-9.3C-59.8,207.6-72.7,204-88.5,204z"/>
<path class="st0" d="M-49.2,212.8l-9.6,9.3c4.3,1.8,8.2,3.8,11.7,6.1l9.1-8.7C-41.4,217.1-45.1,214.8-49.2,212.8z"/>
<ellipse class="st0" cx="-42.8" cy="223.6" rx="6.6" ry="6"/>
<path class="st0" d="M-0.6,247.5h-48c-3.1,0-5.6-2.5-5.6-5.6v-0.8c0-3.1,2.5-5.6,5.6-5.6h48c3.1,0,5.6,2.5,5.6,5.6v0.8
	C5,245,2.5,247.5-0.6,247.5z"/>
<path class="st0" d="M-18.6,217.1v48c0,3.1-2.5,5.6-5.6,5.6H-25c-3.1,0-5.6-2.5-5.6-5.6v-48c0-3.1,2.5-5.6,5.6-5.6h0.8
	C-21.1,211.5-18.6,214-18.6,217.1z"/>
</svg>
