<?xml version="1.0" encoding="utf-8"?>
<!-- Generator: Adobe Illustrator 19.0.0, SVG Export Plug-In . SVG Version: 6.00 Build 0)  -->
<svg version="1.1" id="图层_1" xmlns="http://www.w3.org/2000/svg" xmlns:xlink="http://www.w3.org/1999/xlink" x="0px" y="0px"
	 viewBox="-183 98.9 200 200" style="enable-background:new -183 98.9 200 200;" xml:space="preserve">
<style type="text/css">
	.st0{clip-path:url(#SVGID_2_);}
	.st1{clip-path:url(#SVGID_4_);fill:#999999;}
</style>
<g>
	<g>
		<defs>
			<path id="SVGID_1_" d="M-44.1,144.4l-52.5,54.1l52.5,54.1c1.6,1.6,2.8,3.5,3.7,5.7c0.8,2.1,1.2,4.3,1.2,6.5s-0.4,4.3-1.2,6.4
				s-2,3.9-3.7,5.6c-3.2,3.4-7.1,5.1-11.6,5.1s-8.4-1.7-11.6-5.1l-63.4-65c-1.6-1.6-2.9-3.6-3.8-5.9c-0.9-2.3-1.4-4.6-1.6-7
				c-0.1-2.4,0.2-4.6,0.9-6.8s1.9-4,3.5-5.4l64.5-66.1c3.2-3.3,7.1-4.9,11.6-4.9s8.4,1.6,11.6,4.9c1.6,1.6,2.8,3.5,3.7,5.7
				c0.8,2.1,1.2,4.3,1.2,6.5s-0.4,4.3-1.2,6.4C-41.3,140.9-42.5,142.8-44.1,144.4z"/>
		</defs>
		<use xlink:href="#SVGID_1_"  style="overflow:visible;fill:#999999;"/>
		<clipPath id="SVGID_2_">
			<use xlink:href="#SVGID_1_"  style="overflow:visible;"/>
		</clipPath>
		<g class="st0">
			<g>
				<defs>
					<rect id="SVGID_3_" x="-261" y="-99.4" width="2598.8" height="4622.4"/>
				</defs>
				<use xlink:href="#SVGID_3_"  style="overflow:visible;fill:#999999;"/>
				<clipPath id="SVGID_4_">
					<use xlink:href="#SVGID_3_"  style="overflow:visible;"/>
				</clipPath>
				<rect x="-170.9" y="80.7" class="st1" width="166.3" height="235.6"/>
			</g>
		</g>
	</g>
</g>
</svg>
