<?xml version="1.0" encoding="utf-8"?>
<!-- Generator: Adobe Illustrator 19.0.0, SVG Export Plug-In . SVG Version: 6.00 Build 0)  -->
<svg version="1.1" id="图层_1" xmlns="http://www.w3.org/2000/svg" xmlns:xlink="http://www.w3.org/1999/xlink" x="0px" y="0px"
	 viewBox="-4161.7 1965 161.6 40.8" style="enable-background:new -4161.7 1965 161.6 40.8;" xml:space="preserve">
<style type="text/css">
	.st0{fill:#FABA7D;}
	.st1{fill:#FACDA3;}
	.st2{enable-background:new    ;}
	.st3{fill:#FFFFFF;}
</style>
<path id="XMLID_8_" class="st0" d="M-4013.2,2005.8h-145.6c-2,0-3.2-1.6-2.7-3.6l8.4-33.6c0.5-2,2.5-3.6,4.5-3.6h145.6
	c2,0,3.2,1.6,2.7,3.6l-8.4,33.6C-4009.2,2004.2-4011.2,2005.8-4013.2,2005.8z"/>
<path id="XMLID_7_" class="st1" d="M-4013.2,2005.8h-24.6l10.2-40.7h24.6c2,0,3.2,1.6,2.7,3.6l-8.4,33.6
	C-4009.2,2004.2-4011.2,2005.8-4013.2,2005.8z"/>
<g class="st2">
	<path class="st3" d="M-4122.9,1992.8l-0.8,3.3h-23.5l0.8-3.3h3.1l3.6-14.5h6l0.4-0.9h-8.7l0.8-3.3h9c0.2-0.6,0.4-1.1,0.5-1.7l4,0.4
		l-0.4,1.4h9.3l-0.8,3.3h-10l-0.4,0.9h7.6l-3.6,14.5L-4122.9,1992.8C-4122.9,1992.9-4122.9,1992.8-4122.9,1992.8z M-4139.6,1992.8
		h9.9l0.2-0.9h-9.9L-4139.6,1992.8z M-4138.9,1989.3h9.9l0.2-0.9h-9.9L-4138.9,1989.3z M-4127.9,1984.9h-9.9l-0.2,0.8h9.9
		L-4127.9,1984.9z M-4136.9,1981.4l-0.2,0.9h9.9l0.2-0.9H-4136.9z"/>
	<path class="st3" d="M-4113.2,1987.3l-1.4,5.5c-0.4,1.7-0.9,2.6-2,3.1c-1.1,0.6-2.5,0.7-4.3,0.7c0.1-0.9,0-2.4-0.2-3.3
		c0.9,0,1.9,0,2.3,0c0.4,0,0.5-0.1,0.6-0.5l1.1-4.6l-2.3,0.5v-3.5c1-0.2,2.1-0.4,3.3-0.6l1-3.9h-2.8l0.9-3.4h2.8l1.2-4.7h3.6
		l-1.2,4.7h2.4l-0.7,2.7c2-1.1,2.6-2.5,2.9-3.9l0.7-2.7h9.6l-1.3,5.4c-0.2,0.7-0.2,1.1,0.1,1.1h1.1c0.4,0,1.1-0.1,1.6-0.2
		c-0.2,0.9-0.4,2.2-0.5,3c-0.5,0.2-1.2,0.2-1.8,0.2h-1.5c-2.9,0-3.2-1.3-2.5-4.2l0.5-1.9h-2.6c-0.7,2.5-2.3,5.1-6.1,6.6
		c-0.5-0.7-1.4-2.1-1.9-2.7h0.1h-1l-0.8,3.1l1.7-0.4l-0.5,3.4L-4113.2,1987.3z M-4096.4,1984.4c-1.6,3.1-3.6,5.5-5.9,7.4
		c1.4,0.7,3.1,1.2,5,1.6c-1,0.8-2.4,2.4-3.2,3.4c-2.3-0.6-4.2-1.4-5.7-2.5c-2.2,1.1-4.6,1.9-7.2,2.5c-0.1-1-0.5-2.5-0.9-3.4
		c2-0.3,4-0.8,5.7-1.6c-0.9-1.2-1.6-2.7-2.1-4.4l1.5-0.5h-1.8l0.9-3.4h10.9l0.7-0.1L-4096.4,1984.4z M-4106.9,1987
		c0.4,1.1,1.1,2,1.9,2.9c1.1-0.8,2.2-1.8,3.1-2.9H-4106.9z"/>
	<path class="st3" d="M-4085.6,1989.5c-3.3,1.1-6.8,2.2-9.6,3.1l0.1-3.9c0.9-0.2,2.1-0.4,3.4-0.7l2.3-9.2h-2.7l0.9-3.5h8.7l-0.9,3.4
		h-2.3l-2.1,8.3l2.5-0.6L-4085.6,1989.5z M-4076.4,1987.5c-0.9,3.6-3.7,7.3-11.4,9.4c-0.3-0.8-1-2.1-1.7-2.8
		c7.1-1.6,8.8-4.3,9.4-6.7l1.3-5.1h3.7L-4076.4,1987.5z M-4079.1,1978.4c0.3-0.5,0.6-1.1,1-1.6h-4.6l0.8-3.3h14.8l-0.8,3.3h-5.9
		c-0.4,0.6-0.9,1.1-1.3,1.6h5.8l-3,11.9h-3.8l2.2-8.7h-5.8l-2.2,8.8h-3.6l3-12.1L-4079.1,1978.4L-4079.1,1978.4z M-4076.2,1990.7
		c1.5,1,3.5,2.5,4.5,3.6l-3.1,2.5c-0.8-1.1-2.7-2.7-4.2-3.8L-4076.2,1990.7z"/>
	<path class="st3" d="M-4044.3,1973.9l-5.6,22.6h-3.9l0.4-1.5h-10.9l-0.4,1.5h-3.7l5.6-22.6H-4044.3z M-4052.6,1991.3l0.6-2.3h-10.9
		l-0.6,2.3H-4052.6z M-4061.5,1983.2l-0.6,2.3h10.9l0.6-2.3H-4061.5z M-4060.1,1977.5l-0.6,2.2h10.9l0.6-2.2H-4060.1z"/>
</g>
<polygon id="XMLID_6_" class="st3" points="-4009.8,1987.8 -4027.8,1987.8 -4026.5,1983.8 -4008.5,1983.8 "/>
<polygon id="XMLID_5_" class="st3" points="-4022.3,1994.3 -4017.8,1976.8 -4013.8,1976.7 -4018.3,1994.2 "/>
</svg>
