<?xml version="1.0" encoding="utf-8"?>
<!-- Generator: Adobe Illustrator 19.0.0, SVG Export Plug-In . SVG Version: 6.00 Build 0)  -->
<svg version="1.1" id="图层_1" xmlns="http://www.w3.org/2000/svg" xmlns:xlink="http://www.w3.org/1999/xlink" x="0px" y="0px"
	 viewBox="-4161.7 1965 161.6 40.8" style="enable-background:new -4161.7 1965 161.6 40.8;" xml:space="preserve">
<style type="text/css">
	.st0{fill:#FF9972;}
	.st1{fill:#FEB69C;}
	.st2{enable-background:new    ;}
	.st3{fill:#FFFFFF;}
</style>
<path class="st0" d="M-4013.2,2005.8h-145.6c-2,0-3.2-1.6-2.7-3.6l8.4-33.6c0.5-2,2.5-3.6,4.5-3.6h145.6c2,0,3.2,1.6,2.7,3.6
	l-8.4,33.6C-4009.2,2004.2-4011.3,2005.8-4013.2,2005.8z"/>
<path class="st1" d="M-4013.2,2005.8h-24.6l10.2-40.7h24.6c2,0,3.2,1.6,2.7,3.6l-8.4,33.6
	C-4009.2,2004.2-4011.3,2005.8-4013.2,2005.8z"/>
<g class="st2">
	<path class="st3" d="M-4132.9,1993.5c0.7,0.1,1.5,0.1,2.3,0.1c1.6,0,5.8,0,7.8-0.1c-0.8,0.9-1.8,2.6-2.2,3.8h-6.6
		c-4.5,0-7.6-0.7-9.1-4.1c-1.2,1.8-2.7,3.3-4.3,4.5c-0.4-0.7-1.7-2-2.4-2.5c3.2-1.9,5.3-5.4,6.7-9.7l3.7,0.4c-0.4,1-0.8,2-1.2,3
		c0.2,1.7,0.9,2.8,1.8,3.5l1.9-7.6h-4.9l0.9-3.5h13.6l-0.9,3.5h-4.8l-0.7,2.4h6.7l-0.9,3.5h-6.7L-4132.9,1993.5z M-4139.5,1983h-3.7
		l1.7-6.9h9.3c0-0.6-0.2-1.3-0.3-1.9l4-1c0.3,0.9,0.5,2,0.5,2.9h8.8l-1.7,6.9h-3.8l0.8-3.4h-14.8L-4139.5,1983z"/>
	<path class="st3" d="M-4108,1980.3c-1.3,1.7-2.7,3.4-4.2,4.9l-3,12.4h-3.7l2.1-8.3c-0.8,0.5-1.6,1-2.4,1.5c-0.1-1-0.5-2.7-0.8-3.6
		c3-1.6,5.7-4.1,7.9-6.9h-5.2l0.9-3.5h6.8c0.7-1.1,1.3-2.2,1.9-3.3l3.6,0.9c-0.5,0.8-0.9,1.6-1.4,2.4h12.1l-0.9,3.5H-4108z
		 M-4096.9,1991.7h-5.6l-0.6,2.4c-0.4,1.8-1,2.7-2.3,3.2c-1.3,0.5-2.9,0.6-4.8,0.5c0.1-1,0.1-2.5-0.1-3.5c1,0.1,2.5,0.1,2.9,0.1
		c0.4,0,0.6-0.1,0.6-0.4l0.6-2.3h-6.1l0.9-3.4h6.1l0.4-1.6c0.7-0.4,1.4-0.9,2.1-1.4h-6l0.8-3.3h9.3l0.8-0.2l1.8,1.9
		c-1.6,1.3-3.5,2.7-5.4,3.9l-0.2,0.7h5.6L-4096.9,1991.7z"/>
	<path class="st3" d="M-4084.9,1988.9c-0.1,1.1,0.1,2.7,0.3,3.4c-6.3,3.9-7.6,4.8-8.3,5.4c0-1-0.5-2.7-0.9-3.5
		c0.8-0.4,1.8-1.3,2.1-2.5l1.7-6.9h-3.5l0.9-3.7h7.3l-2.3,9.3L-4084.9,1988.9z M-4086.3,1980.2c-0.6-1.1-2.1-2.8-3.3-4l2.9-2.4
		c1.2,1.1,2.8,2.6,3.5,3.7L-4086.3,1980.2z M-4069.8,1985.2h-5.5l-3.1,12.5h-4l3.1-12.5h-6l1-3.9h5.9l1.9-7.7h4l-1.9,7.7h5.5
		L-4069.8,1985.2z"/>
	<path class="st3" d="M-4054.8,1984.2c-1.9,2.7-4,5.1-6.4,7.3c0.2,1.4,0.6,2.3,1.3,2.3c0.5,0,1.1-1.2,2-4.2c0.6,0.8,1.6,1.7,2.5,2
		c-1.8,4.8-3.2,5.9-5.7,5.9c-1.8,0-2.9-1.2-3.5-3.1c-1.4,1.1-2.9,2-4.3,2.8c-0.3-0.8-1.3-2.2-1.8-2.9c1.9-0.9,3.8-2.1,5.6-3.5
		c-0.1-2.1,0-4.6,0.4-7.2l-3.1,0.3l0.5-3.5l3.1-0.3c0.4-2.1,0.8-4.3,1.4-6.5h3.8c-0.6,2-1,4.1-1.4,6.1l7.5-0.8l-0.5,3.5l-7.5,0.8
		c-0.2,1.5-0.3,2.9-0.4,4.1c1.2-1.3,2.4-2.7,3.3-4.1L-4054.8,1984.2z M-4056.8,1979.2c-0.4-1-1.5-2.6-2.5-3.6l2.9-2
		c1,1,2.3,2.4,2.7,3.4L-4056.8,1979.2z M-4051.3,1990.3h-3.5l3.5-14.1h3.5L-4051.3,1990.3z M-4042.3,1973.8l-4.9,19.8
		c-0.5,1.9-1,2.9-2.3,3.5c-1.2,0.6-2.9,0.7-5,0.7c0.1-1,0-2.6-0.2-3.7c1.3,0.1,2.7,0.1,3.2,0.1s0.6-0.1,0.8-0.6l4.9-19.8
		C-4045.8,1973.8-4042.3,1973.8-4042.3,1973.8z"/>
</g>
<polygon id="XMLID_6_" class="st3" points="-4009.8,1987.7 -4027.8,1987.7 -4026.6,1983.7 -4008.6,1983.7 "/>
<polygon id="XMLID_5_" class="st3" points="-4022.4,1994.2 -4017.9,1976.7 -4013.9,1976.5 -4018.4,1994.2 "/>
</svg>
