<?xml version="1.0" encoding="utf-8"?>
<!-- Generator: Adobe Illustrator 19.0.0, SVG Export Plug-In . SVG Version: 6.00 Build 0)  -->
<svg version="1.1" id="图层_1" xmlns="http://www.w3.org/2000/svg" xmlns:xlink="http://www.w3.org/1999/xlink" x="0px" y="0px"
	 viewBox="-4161.5 1964.1 161.6 40.8" style="enable-background:new -4161.5 1964.1 161.6 40.8;" xml:space="preserve">
<style type="text/css">
	.st0{fill:#F96B4A;}
	.st1{fill:#FA967F;}
	.st2{fill:#FFFFFF;}
	.st3{font-family:'SourceHanSansCN-Heavy-GBpc-EUC-H';}
	.st4{font-size:25.9658px;}
</style>
<path class="st0" d="M-4013,2004.9h-145.6c-2,0-3.2-1.6-2.7-3.6l8.4-33.6c0.5-2,2.5-3.6,4.5-3.6h145.6c2,0,3.2,1.6,2.7,3.6
	l-8.4,33.6C-4009,2003.3-4011.1,2004.9-4013,2004.9z"/>
<path class="st1" d="M-4013,2004.9h-24.6l10.2-40.7h24.6c2,0,3.2,1.6,2.7,3.6l-8.4,33.6C-4009,2003.3-4011.1,2004.9-4013,2004.9z"/>
<polygon id="XMLID_6_" class="st2" points="-4009.6,1986.9 -4027.6,1986.9 -4026.4,1982.9 -4008.4,1982.9 "/>
<polygon id="XMLID_5_" class="st2" points="-4022.2,1993.5 -4017.7,1975.9 -4013.7,1975.8 -4018.2,1993.4 "/>
<text transform="matrix(0.9703 0 -0.2419 0.9703 -4148.3335 1994.6515)" class="st2 st3 st4">彩虹计划</text>
</svg>
