<?xml version="1.0" encoding="utf-8"?>
<!-- Generator: Adobe Illustrator 19.0.0, SVG Export Plug-In . SVG Version: 6.00 Build 0)  -->
<svg version="1.1" id="图层_1" xmlns="http://www.w3.org/2000/svg" xmlns:xlink="http://www.w3.org/1999/xlink" x="0px" y="0px"
	 viewBox="-4590 -6551.9 639.1 7141.4" style="enable-background:new -4590 -6551.9 639.1 7141.4;" xml:space="preserve">
<style type="text/css">
	.st0{fill:#838A94;}
	.st1{fill:none;}
	.st2{fill:#838A94;stroke:#060001;stroke-miterlimit:10;}
</style>
<path class="st0" d="M-4405.6-6230.4h-121.6c-4.7,0-8.5,4-8.5,8.8s3.8,8.8,8.5,8.8h121.6c4.7,0,8.5-4,8.5-8.8
	C-4397.1-6226.5-4400.9-6230.4-4405.6-6230.4z"/>
<path class="st0" d="M-4405.6-6277.2h-121.6c-4.7,0-8.5,4-8.5,8.8c0,4.9,3.8,8.8,8.5,8.8h121.6c4.7,0,8.5-4,8.5-8.8
	C-4397.1-6273.3-4400.9-6277.2-4405.6-6277.2z"/>
<path class="st0" d="M-4527.2-6306.4h121.6c4.7,0,8.5-4,8.5-8.8c0-4.9-3.8-8.8-8.5-8.8h-121.6c-4.7,0-8.5,4-8.5,8.8
	C-4535.6-6310.4-4531.8-6306.4-4527.2-6306.4z"/>
<path class="st0" d="M-4332.4-6346.8l0-0.3l-0.1-0.1l0-0.2l0,0c-0.1-0.5-0.3-1-0.6-1.4c-0.1-0.1-0.1-0.2-0.2-0.4
	c-0.3-0.4-0.5-0.8-0.8-1.1v-0.1l-74.3-70.6l0-0.1l-0.5-0.4l-0.4-0.3h-0.1c-0.3-0.3-0.7-0.5-1.2-0.8c-0.2-0.1-0.3-0.2-0.4-0.2
	c-0.6-0.3-1.2-0.5-1.8-0.6l-0.3,0c-0.4-0.1-0.9-0.1-1.3-0.1h-152.9c-10.7,0-19.4,8.3-19.4,18.6v231c0,10.3,8.7,18.6,19.4,18.6h197.1
	v0c3.9-0.1,7.1-3.4,7.1-7.4s-3.2-7.2-7.1-7.4v-0.1h-197.1c-2.2,0-4-1.7-4-3.7v-231c0-2.1,1.8-3.7,4-3.7h145.2v63.1
	c0,4.1,3.5,7.4,7.7,7.4h66.6l0,143.8c0,0,0,0.1,0,0.1s0,0.1,0,0.1v0.3h0c0.2,4,3.6,7.3,7.7,7.3c4.1,0,7.5-3.2,7.7-7.3h0v-151.9
	C-4332.3-6346-4332.3-6346.4-4332.4-6346.8z M-4406.5-6353v-45.4l47.7,45.4H-4406.5z"/>
<path class="st0" d="M-4424.5-5374.9c-8.7,1.9-17.4,3.1-26.1,3.1c-65.2,0-117.9-52-117.9-116.2c0-64.2,52.8-116.2,117.9-116.2
	c65.2,0,117.9,52,117.9,116.2c0,4.9,4.3,8.5,8.7,8.5c5-0.6,8.7-4.3,8.7-9.1c0-69.1-53.4-126-121.6-132.7v-6.1
	c0.6-8.6-6.8-15.3-15.5-15.3h-1.9c-8.7,0-15.5,6.7-15.5,15.3v6.1c-65.8,9.8-116.7,65.5-116.7,132.7c0,73.9,60.8,133.9,135.9,133.9
	c9.9,0,19.9-1.2,29.8-3.1c5-1.2,8.1-5.5,6.8-10.4C-4415.2-5373.1-4419.6-5376.2-4424.5-5374.9L-4424.5-5374.9z"/>
<path class="st0" d="M-4450-5563.9c-5,0-8.7,3.7-8.7,8.6v66.7c0,4.9,3.7,8.5,8.7,8.5h63.3c4.9,0,8.7-3.6,8.7-8.5
	c-0.6-5.5-4.4-9.2-9.3-9.2h-54v-57.4C-4441.3-5560.2-4445-5563.9-4450-5563.9L-4450-5563.9z"/>
<path class="st0" d="M-4327.4-5398.7h-27.3v-14.6h27.3c3.9,0,7.1-3.2,7.1-7c0-3.9-3.2-7-7.1-7h-13.1l15.6-27.1
	c0.9-1.6,1.2-3.5,0.7-5.3c-0.5-1.8-1.7-3.3-3.3-4.3c-1.6-0.9-3.5-1.2-5.3-0.7c-1.8,0.5-3.3,1.6-4.3,3.3l-19.7,34.1h-11.5l-19.7-34.1
	c-0.9-1.6-2.4-2.8-4.3-3.3c-1.8-0.5-3.7-0.2-5.3,0.7c-1.6,0.9-2.8,2.5-3.3,4.3c-0.5,1.8-0.2,3.7,0.7,5.3l15.6,27.1h-11.6
	c-3.9,0-7.1,3.2-7.1,7c0,3.9,3.2,7,7.1,7h27.3v14.6h-27.3c-3.9,0-7.1,3.2-7.1,7c0,3.9,3.2,7,7.1,7h27.3v21.6c0,3.9,3.2,7.1,7,7.1
	c3.9,0,7-3.2,7-7.1v-21.6h27.3c3.9,0,7.1-3.2,7.1-7C-4320.3-5395.6-4323.5-5398.7-4327.4-5398.7z"/>
<path class="st1" d="M-4346-4830.7h-196.7c-9,0-16.4,7.3-16.4,16.4v25.6h229.4v-25.6C-4329.6-4823.4-4337.1-4830.7-4346-4830.7z"/>
<path class="st1" d="M-4346-4830.7h-196.7c-9,0-16.4,7.3-16.4,16.4v25.6h229.4v-25.6C-4329.6-4823.4-4337.1-4830.7-4346-4830.7z"/>
<path class="st1" d="M-4346-4830.6h-196.7c-9,0-16.4,7.3-16.4,16.4v25.6h229.4v-25.6C-4329.6-4823.2-4337-4830.6-4346-4830.6z"/>
<path class="st0" d="M-4347.6-4844.9h-193.6c-17.8,0-32.3,14.5-32.3,32.3c0,0,0,29,0,41.4s14.3,12.2,14.3,12.2h227.8v95.1
	c0,9-7.3,16.4-16.4,16.4H-4470v15.9h122.5c17.8,0,32.3-14.5,32.3-32.3v-148.8C-4315.3-4830.6-4329.8-4844.9-4347.6-4844.9z
	 M-4331.2-4785.5l-226.3-3.1v-24c0-9,7.3-16.4,16.4-16.4h193.6c9,0,16.4,7.3,16.4,16.4V-4785.5z"/>
<path class="st0" d="M-4507.2-4701.7h-68.6c-7.3,0-13.3,6-13.3,13.3v46.3c0,7.3,6,13.3,13.3,13.3h68.6c7.3,0,13.3-6,13.3-13.3v-46.3
	C-4493.9-4695.7-4499.9-4701.7-4507.2-4701.7z M-4506.6-4641.1h-69.4v-47.8h69.4V-4641.1z"/>
<g>
	<path class="st0" d="M-4542-4733.9c13.2,0,23.9,10.7,23.9,23.9v9.2c0,0.3,0,0.9,0,1.7h-47.8c0-0.8,0-1.4,0-1.7v-9.2
		C-4565.9-4723.2-4555.2-4733.9-4542-4733.9 M-4542-4743.9L-4542-4743.9c-18.6,0-33.9,15.3-33.9,33.9v9.2c0,0.8,0,10.9,0.1,11.7
		h67.6c0.1-0.8,0.1-10.9,0.1-11.7v-9.2C-4508.1-4728.6-4523.4-4743.9-4542-4743.9L-4542-4743.9z"/>
</g>
<path class="st0" d="M-4361.3-4673.8h-48.7c-3,0-5.5-2.5-5.5-5.5v-6.1c0-3,2.5-5.5,5.5-5.5h48.7c3,0,5.5,2.5,5.5,5.5v6.1
	C-4355.8-4676.3-4358.2-4673.8-4361.3-4673.8z"/>
<circle class="st0" cx="-4470" cy="-4639.7" r="7.9"/>
<g>
	<path class="st0" d="M-4321.5-3967.5c-13.3-17.7-31.9-31.3-52.8-38.5c15-11.3,23.9-29,23.9-47.7c0-32.9-26.8-59.7-59.7-59.7
		c-32.9,0-59.7,26.8-59.7,59.7c0,18.7,8.9,36.5,23.9,47.7c-20.8,7.2-39.5,20.8-52.8,38.5c-14.4,19.3-22,42.2-22,66.2c0,5,4,9,9,9
		c5,0,9-4,9-9c0-51.1,41.6-92.7,92.7-92.7c51.1,0,92.7,41.6,92.7,92.7c0,5,4,9,9,9c5,0,9-4,9-9
		C-4299.5-3925.3-4307.1-3948.2-4321.5-3967.5z M-4410.2-4095.4c23,0,41.8,18.7,41.8,41.7c0,23-18.7,41.8-41.8,41.8
		s-41.8-18.7-41.8-41.8C-4451.9-4076.7-4433.2-4095.4-4410.2-4095.4z"/>
	<path class="st0" d="M-4486.5-3990.6c0-5-4-9-9-9c-19.7,0-35.7-16-35.7-35.7c0-19.7,16-35.7,35.7-35.7c5,0,9-4,9-9c0-5-4-9-9-9
		c-29.6,0-53.7,24.1-53.7,53.6c0,16,7.4,31.5,19.9,41.6c-38.8,14.2-64.7,51.2-64.7,92.5c0,5,4,9,9,9c5,0,9-4,9-9
		c0-44.4,36.1-80.5,80.5-80.5C-4490.6-3981.6-4486.5-3985.6-4486.5-3990.6z"/>
</g>
<path class="st0" d="M-4307.4-3298.7c-2-2-5.9-5.9-9.9-11.8c-13.8-15.8-37.5-43.4-47.4-55.3c-3.9-3.9-9.9-11.8-21.7-11.8h-116.5
	c-5.9,0-13.8,2-23.7,11.8c-5.9,7.9-15.8,19.7-25.7,31.6c-13.8,13.8-25.7,29.6-31.6,37.5c-9.9,11.8-11.8,29.6,0,45.4
	c11.8,13.8,37.5,43.4,69.1,79l47.4,55.3c9.9,9.9,15.8,11.8,21.7,11.8s11.8-2,21.7-11.8l49.4-57.3c29.6-33.6,53.3-61.2,67.1-77
	C-4297.5-3263.2-4295.5-3282.9-4307.4-3298.7z M-4318.7-3264.5c-13.5,15.4-38.5,44.2-69.2,78.9l-50,57.7c-3.8,5.8-5.8,5.8-7.7,5.8
	c-1.9,0-3.8,0-7.7-5.8l-48.1-55.8c-30.8-36.5-57.7-65.4-69.2-80.8c-5.8-7.7-5.8-15.4-1.9-21.2c5.8-7.7,19.2-23.1,32.7-38.5
	c9.6-11.5,21.2-23.1,26.9-30.8c3.8-5.8,5.8-5.8,7.7-5.8h117.3c3.8,0,3.8,0,7.7,5.8c11.5,11.5,34.6,40.4,50,55.8
	c3.8,5.8,7.7,9.6,9.6,11.5C-4312.9-3279.9-4314.8-3270.3-4318.7-3264.5L-4318.7-3264.5z M-4388.4-3281l-57.3,73.1l-55.3-73.1h-29.6
	v11.8c5.9,0,7.9,2,9.9,3.9l2,2c11.8,17.8,59.2,75,73.1,94.8c13.8-17.8,59.3-74.5,73.1-92.3l3.1-4.3c1.4-1.4,2.8-4.1,8.7-4.1v-11.8
	H-4388.4L-4388.4-3281z"/>
<path class="st0" d="M-4337.1-2527.3c-2.5-3.9-7.8-5-11.7-2.5c-3.9,2.5-5,7.8-2.5,11.7c12.3,19.1,18.8,41.3,18.8,64.1
	c0,31.7-12.3,61.5-34.7,83.9s-52.2,34.7-83.9,34.7s-61.5-12.3-83.9-34.7c-22.4-22.4-34.7-52.2-34.7-83.9c0-22.9,6.5-45.2,18.9-64.3
	c2.5-3.9,1.4-9.1-2.5-11.7c-3.9-2.5-9.1-1.4-11.7,2.5c-14.2,21.9-21.6,47.3-21.6,73.5c0,18.3,3.6,36,10.7,52.7
	c6.8,16.1,16.6,30.6,29,43.1c12.4,12.4,26.9,22.2,43.1,29c16.7,7.1,34.5,10.7,52.7,10.7c18.3,0,36-3.6,52.7-10.7
	c16.1-6.8,30.6-16.6,43.1-29c12.4-12.4,22.2-26.9,29-43.1c7.1-16.7,10.7-34.5,10.7-52.7C-4315.6-2480.1-4323-2505.5-4337.1-2527.3
	L-4337.1-2527.3z"/>
<path class="st0" d="M-4408.6-2408.4h-31.4v-16.8h31.4c4.5,0,8.1-3.6,8.1-8.1c0-4.5-3.7-8.1-8.1-8.1h-15.1l18-31.2
	c1.1-1.9,1.4-4,0.8-6.1c-0.6-2.1-1.9-3.8-3.8-4.9c-1.9-1.1-4.1-1.4-6.2-0.8c-2.1,0.6-3.8,1.9-4.9,3.7l-22.7,39.3h-13.2l-22.7-39.3
	c-1.1-1.9-2.8-3.2-4.9-3.7c-2.1-0.6-4.3-0.3-6.2,0.8c-1.9,1.1-3.2,2.8-3.8,4.9c-0.6,2.1-0.3,4.3,0.8,6.1l18,31.2h-13.3
	c-4.5,0-8.1,3.6-8.1,8.1c0,4.5,3.7,8.1,8.1,8.1h31.4v16.8h-31.4c-4.5,0-8.1,3.6-8.1,8.1c0,4.5,3.7,8.1,8.1,8.1h31.4v24.9
	c0,4.5,3.6,8.1,8.1,8.1c4.5,0,8.1-3.6,8.1-8.1v-24.9h31.4c4.5,0,8.1-3.6,8.1-8.1C-4400.4-2404.7-4404.1-2408.4-4408.6-2408.4z"/>
<path class="st0" d="M-4545.5-2548.2C-4545.5-2548.2-4545.5-2548.2-4545.5-2548.2L-4545.5-2548.2z"/>
<path class="st0" d="M-4356.7-2551.2C-4356.7-2551.2-4356.7-2551.2-4356.7-2551.2C-4356.7-2551.2-4356.7-2551.2-4356.7-2551.2
	c-0.1-0.1-0.1-0.1-0.2-0.2c-25.4-24.6-58.8-38.1-94.2-38.1c-35.3,0-68.8,13.5-94.2,38.1c0,0-3.3,2.5-2.8,6.5
	c0.4,3.9,2.8,5.7,2.8,5.7c25.4,24.6,58.8,38.1,94.2,38.1c35.3,0,68.7-13.5,94-37.9c0,0,2.8-2.4,2.7-6.5
	C-4354.4-2547.7-4355.2-2549.7-4356.7-2551.2z M-4451.1-2518.1c-27.9,0-54.4-9.6-75.7-27.3c21.2-17.6,47.8-27.3,75.7-27.3
	c27.9,0,54.4,9.6,75.7,27.3C-4396.7-2527.7-4423.2-2518.1-4451.1-2518.1z"/>
<g>
	<path class="st0" d="M-4409.4-1715.9v16.2c0,4.5,3.6,8.1,8.1,8.1s8.1-3.6,8.1-8.1v-16.2c0-4.5-3.6-8.1-8.1-8.1
		S-4409.4-1720.3-4409.4-1715.9z"/>
	<path class="st0" d="M-4401.3-1689.5c-5.6,0-10.1-4.5-10.1-10.1v-16.2c0-5.6,4.5-10.1,10.1-10.1s10.1,4.5,10.1,10.1v16.2
		C-4391.2-1694.1-4395.7-1689.5-4401.3-1689.5z M-4401.3-1722c-3.4,0-6.1,2.7-6.1,6.1v16.2c0,3.4,2.7,6.1,6.1,6.1s6.1-2.7,6.1-6.1
		v-16.2C-4395.2-1719.2-4397.9-1722-4401.3-1722z"/>
</g>
<g>
	<path class="st0" d="M-4505.7-1715.9v16.2c0,4.5,3.6,8.1,8.1,8.1c4.5,0,8.1-3.6,8.1-8.1v-16.2c0-4.5-3.6-8.1-8.1-8.1
		C-4502-1724-4505.7-1720.3-4505.7-1715.9z"/>
	<path class="st0" d="M-4497.6-1689.5c-5.6,0-10.1-4.5-10.1-10.1v-16.2c0-5.6,4.5-10.1,10.1-10.1s10.1,4.5,10.1,10.1v16.2
		C-4487.5-1694.1-4492-1689.5-4497.6-1689.5z M-4497.6-1722c-3.4,0-6.1,2.7-6.1,6.1v16.2c0,3.4,2.7,6.1,6.1,6.1s6.1-2.7,6.1-6.1
		v-16.2C-4491.5-1719.2-4494.2-1722-4497.6-1722z"/>
</g>
<g>
	<path class="st0" d="M-4516.2-1636.1c8.3,27.6,28.3,43.6,62.7,43.6s64.4-16,72.7-43.6c1.1-3.6-0.9-7.4-4.5-8.5
		c-3.6-1.1-7.4,0.9-8.5,4.5c-6.6,21.8-31.2,34-59.7,34s-43.1-12.2-49.7-34c-1.1-3.6-4.9-5.6-8.5-4.5
		C-4515.2-1643.5-4517.3-1639.7-4516.2-1636.1z"/>
	<path class="st0" d="M-4453.5-1590.5c-33.9,0-55.6-15.2-64.6-45.1l0,0c-1.4-4.6,1.2-9.6,5.9-11c2.3-0.7,4.6-0.4,6.7,0.7
		c2.1,1.1,3.6,3,4.3,5.2c6.7,22.2,21.9,32.5,47.8,32.5c29.1,0,51.8-12.8,57.8-32.5c0.7-2.2,2.2-4.1,4.3-5.2c2.1-1.1,4.5-1.3,6.7-0.7
		c4.6,1.4,7.3,6.3,5.9,11C-4387.1-1608.1-4416.4-1590.5-4453.5-1590.5z M-4514.3-1636.7c8.5,28,28.9,42.2,60.8,42.2
		c35.3,0,63-16.6,70.8-42.2c0.8-2.5-0.7-5.2-3.2-6c-1.2-0.4-2.5-0.2-3.7,0.4c-1.1,0.6-2,1.6-2.3,2.8c-6.5,21.5-30.7,35.4-61.6,35.4
		c-27.9,0-44.3-11.2-51.6-35.4c-0.4-1.2-1.2-2.2-2.3-2.8c-1.1-0.6-2.4-0.7-3.7-0.4C-4513.6-1641.9-4515-1639.2-4514.3-1636.7
		L-4514.3-1636.7z"/>
</g>
<path class="st0" d="M-4433.9-1531.8c16-2,31.1-6.9,44.9-14c18.1-9.3,33.6-22.5,45.6-38.1c12-15.6,20.7-33.9,25-53.9
	c3.3-15,4-30.7,1.9-46.6c-2.1-15.9-6.9-30.8-13.9-44.5c-9.3-18.1-22.4-33.6-38.1-45.6c-15.6-12-33.9-20.7-53.9-25
	c-15-3.3-30.7-4-46.6-1.9c-15.8,2.1-30.8,6.9-44.5,13.9c-18.1,9.3-33.6,22.5-45.6,38.1c-12,15.6-20.7,33.9-25,53.9
	c-3.3,15.1-4,31-1.9,46.9c1.7,12.5,5,24.6,10,36.1c0.1,0.2,0.1,0.3,0.2,0.5c4.7,10.8,10.8,20.8,18,29.9c2.9,3.7,8.3,4.3,11.9,1.4
	c3.7-2.9,4.3-8.3,1.4-11.9c-10.1-12.6-17.5-27.3-21.7-43.2c-1.4-5.2-2.4-10.4-3.1-15.6c-0.6-5-1-10.1-1-15.2
	c0-8.7,0.9-17.1,2.7-25.2c3.7-17.2,11.3-33.3,21.9-47.1c10.6-13.8,24.2-25.3,39.9-33.3c7.4-3.8,15.3-6.9,23.7-9.1
	c5.1-1.4,10.2-2.4,15.2-3c5.1-0.7,10.3-1,15.5-1c8.7,0,17.1,0.9,25.2,2.7c17.2,3.7,33.3,11.3,47.1,21.9
	c13.8,10.6,25.3,24.2,33.3,39.9c3.8,7.4,6.9,15.3,9.1,23.7c1.4,5.1,2.4,10.2,3,15.3c0.7,5.1,1,10.3,1,15.5c0,8.7-0.9,17.1-2.7,25.2
	c-3.7,17.2-11.3,33.3-21.9,47.1c-10.6,13.8-24.2,25.3-39.9,33.3c-7.4,3.8-15.3,6.9-23.7,9.1c-5,1.3-9.9,2.3-14.9,3
	c-5.2,0.7-10.5,1-15.8,1c-8.5,0-16.9-0.9-25.1-2.7c-0.3-0.1-0.5-0.1-0.8-0.2c-0.1,0-0.1,0-0.2,0c-10.1-2.3-19.8-5.8-29-10.6
	c-4.2-2.2-9.3-0.6-11.5,3.6c-2.2,4.2-0.6,9.3,3.6,11.5c10.8,5.7,22.3,9.8,34.3,12.4C-4464.9-1530.4-4449.3-1529.8-4433.9-1531.8z"/>
<path class="st2" d="M-4451.2-1018c-75.1,0-136.2,61.1-136.2,136.2s61.1,136.2,136.2,136.2c50.7,0,96.8-27.8,120.5-72.6
	c1-2,1.3-4.2,0.6-6.4c-0.7-2.2-2.1-3.9-4.1-5c-1.2-0.6-2.5-1-3.9-1c-3.1,0-6,1.7-7.4,4.5c-20.8,39.3-61.3,63.7-105.7,63.7
	c-65.9,0-119.5-53.6-119.5-119.4c0-65.9,53.6-119.5,119.5-119.5c65.9,0,119.5,53.6,119.5,119.5c0,4.6,3.8,8.4,8.4,8.4
	s8.4-3.8,8.4-8.4C-4315-956.9-4376.1-1018-4451.2-1018z"/>
<g>
	<path class="st0" d="M-4407.7-912.2c-0.7-8.6-3.5-15.7-8.2-21.2c-6.2-7.2-15.6-11.3-28-12.3l-0.5,0c-0.2,0-0.4,0-0.6,0
		c-0.2,0-0.5,0-0.7,0c-11.3,0-20.7,3.1-28,9.3c-7.2,6.2-12.2,15.3-14.7,27c-0.5,2.2-0.1,4.4,1.1,6.3c1.2,1.9,3,3.2,5.1,3.6
		c0.6,0.1,1.2,0.2,1.9,0.2c3.9,0,7.3-2.8,8.1-6.5c3.4-15.9,11.9-23.3,26.5-23.3h0.9c13.2,1.1,19.6,6.7,20.6,18.3
		c0.6,6.4-5.2,14-16.8,22.1l-0.1,0c-14.4,9.1-21.6,21.7-21.6,37.5v6.6c0,4.6,3.7,8.3,8.3,8.3s8.3-3.7,8.3-8.3v-6.6
		c0-9.8,4.6-17.5,14-23.4l0.4-0.2C-4414.6-886.8-4406.5-899.3-4407.7-912.2z"/>
	<path class="st0" d="M-4453.4-829c-5.4,0-9.9,4.4-9.9,9.9s4.4,9.9,9.9,9.9s9.9-4.4,9.9-9.9S-4448-829-4453.4-829z"/>
</g>
<path class="st0" d="M-4339.7-9.5l0.2-0.1l-0.7-1.3c-1.5-2.8-1.9-3.5-3.4-5.8c-0.5-0.7-1-1.5-1.7-2.6
	c-13.6-20.7-20.6-25.5-23.5-26.5c-2.1-1-11.9-5.2-23.3,0.2c-9,4.3-14.8,8.8-18.1,14.3c-3.9,6.8-6.1,5.9-7.8,5.3
	c-14.5-5.6-29.2-13.1-48.9-43l-0.8-1.2c-19.7-30-20.8-46.4-20.2-61.9c0.1-1.9,0.2-4.2,8-5.1c6.3-0.8,12.7-4.3,20.3-10.9
	c9.5-8.3,9.5-19,9.4-21.3c0.3-3.1-1.4-11.4-15.1-32.1c-12.8-19.4-21.1-23.6-22.5-24.3c-15.5-7.7-38.8,3.1-54.3,25.3l-0.2,0.3
	c-13.2,24.7-11.4,57.3,5.4,99.4c9.1,22.7,16.9,35.8,23.3,45.6l0.5,0.8c1.5,2.3,2.7,4.2,3.7,5.7c1.8,2.7,2.8,4.2,3.1,4.6
	c0.5,0.7,1.5,2.3,3.1,4.8c1,1.5,2.3,3.4,3.8,5.6l0.6,0.9c6.5,9.8,15.4,22.2,32.7,39.5c30,30,57.3,44.5,83.5,44.5
	c1.9,0,3.8-0.1,5.8-0.2l0.3-0.1c9.5-2,11.7-3,19.2-6.5c1.2-0.6,2.6-1.2,4.2-2l1.5-0.8l-0.1-0.2c1.9-1.6,3.1-4,3.1-6.5
	c0-4.7-3.8-8.6-8.6-8.6c-1.5,0-2.9,0.4-4.2,1.1l0,0c-3.2,1.3-14.2,5.4-17.7,6.2c-10,0.7-20.2-1.5-31.1-6.6
	c-6.4-3-13.2-7.2-20.1-12.3c-7.5-5.6-15.3-12.4-23.4-20.4c-16.2-16.2-24.5-27.7-30.4-36.7l-14.7-22.4c-6-9.1-13.2-21.2-21.7-42.5
	c-4.2-10.5-7.4-20.5-9.5-29.5c-2-8.4-3.1-16.2-3.3-23.3c-0.4-12,1.7-22.2,6.3-31.2c5.4-7.4,12.3-13.6,19.1-16.9
	c5.1-2.5,9.9-3.2,12.6-1.9l0.4,0.2c0.9,0.6,6.5,4.6,15.3,18c8.4,12.8,11.1,19.2,11.9,21.6l0.3,2c0,0.9-0.3,4.4-3.5,7.2
	c-6.1,5.4-9.5,6.5-10.9,6.7c-8,1-13.8,3.6-17.8,8c-5,5.5-5.3,11.7-5.4,13.7c-0.4,8.9-0.2,18.9,3.1,31c2.6,9.5,6.9,19.5,13.2,30.4
	l-0.3,0.2l14.8,22.5l0.3-0.2c7.5,10.1,14.9,18,22.7,24.2c9.8,7.8,18.9,11.9,27.2,15.1c1.9,0.7,7.7,3,14.7,0.5
	c5.6-2,10.3-6.3,14.4-13.2c0.8-1.3,3.2-4,10.5-7.4c3.8-1.8,7.1-0.7,8-0.4l1.6,1l0,0c2.1,2.1,11.6,14.2,19.6,26.2l0.7,1.1l0.1-0.1
	c1.6,1.9,4,3.1,6.6,3.1c4.7,0,8.6-3.8,8.6-8.6C-4339.5-8.2-4339.5-8.9-4339.7-9.5z"/>
</svg>
