<?xml version="1.0" encoding="utf-8"?>
<!-- Generator: Adobe Illustrator 19.0.0, SVG Export Plug-In . SVG Version: 6.00 Build 0)  -->
<svg version="1.1" id="图层_1" xmlns="http://www.w3.org/2000/svg" xmlns:xlink="http://www.w3.org/1999/xlink" x="0px" y="0px"
	 viewBox="-172 -1519.9 222 3605.8" style="enable-background:new -172 -1519.9 222 3605.8;" xml:space="preserve">
<style type="text/css">
	.st0{fill:none;stroke:#728092;stroke-width:6;stroke-miterlimit:10;}
	.st1{fill:#728092;}
	.st2{fill:none;}
	.st3{fill:#EB6A38;}
	.st4{fill:none;stroke:#EB6A38;stroke-width:6;stroke-miterlimit:10;}
	.st5{fill:#FFFFFF;}
</style>
<g>
	<g>
		<path class="st0" d="M-84.4-850.3c-2.7,1.6-7.1,1.6-9.8,0l-62-35.8c-2.7-1.6-4.9-5.4-4.9-8.5v-71.6c0-3.1,2.2-6.9,4.9-8.5l62-35.8
			c2.7-1.6,7.1-1.6,9.8,0l62,35.8c2.7,1.6,4.9,5.4,4.9,8.5v71.6c0,3.1-2.2,6.9-4.9,8.5L-84.4-850.3z"/>
	</g>
	<g>
		<path class="st1" d="M-61.2-930.7c0,1.5-1.3,2.8-2.8,2.8h-50.6c-1.5,0-2.8-1.3-2.8-2.8v-4.7c0-1.5,1.3-2.8,2.8-2.8H-64
			c1.5,0,2.8,1.3,2.8,2.8C-61.2-935.4-61.2-930.7-61.2-930.7z"/>
		<path class="st1" d="M-61.2-911.2c0,1.5-1.3,2.8-2.8,2.8h-50.6c-1.5,0-2.8-1.3-2.8-2.8v-4.7c0-1.5,1.3-2.8,2.8-2.8H-64
			c1.5,0,2.8,1.3,2.8,2.8C-61.2-915.9-61.2-911.2-61.2-911.2z"/>
		<path class="st1" d="M-92.2-884c-1.9,0-3.4-1.2-3.4-2.6v-47.3c0-1.4,1.5-2.6,3.4-2.6h5.7c1.9,0,3.4,1.2,3.4,2.6v47.3
			c0,1.4-1.5,2.6-3.4,2.6H-92.2z"/>
		<path class="st1" d="M-83-927c-0.1-0.2-0.1-0.5-0.3-0.7l-25.4-43.7c-0.8-1.3-2.5-1.8-3.8-1l-4,2.3c-1.3,0.8-1.8,2.5-1,3.8
			l25.4,43.8c0.8,1.3,2.5,1.8,3.8,1l4-2.3c0.7-0.4,1.1-1,1.3-1.7C-83-925.5-83-927-83-927z"/>
		<path class="st1" d="M-62.1-970.1l-4-2.3c-1.3-0.8-3-0.3-3.8,1l-25.4,43.7c-0.1,0.2-0.2,0.3-0.2,0.5v1.8c0.2,0.6,0.6,1.2,1.2,1.5
			l4,2.3c1.3,0.8,3,0.3,3.8-1l25.4-43.7C-60.3-967.6-60.8-969.3-62.1-970.1z"/>
	</g>
</g>
<path class="st2" d="M-102.8,1202c0,0,2.2,3.1,6.9,7.2c0.4-2.5,1-5,1.7-7.4L-102.8,1202z"/>
<circle class="st0" cx="-85" cy="-515.3" r="78.5"/>
<path class="st2" d="M-146.9-466.1c0,0,2.3,3.3,7.2,7.6c0.4-2.6,1-5.2,1.8-7.8L-146.9-466.1z"/>
<path class="st2" d="M-21.4-465.9l-13.8,0.4c1.5,3.9,2.5,8,3.1,12.2C-24.9-460.1-21.4-465.9-21.4-465.9z"/>
<g>
	<circle class="st3" cx="-85.4" cy="1139.1" r="28.6"/>
	<path class="st3" d="M-85.5,1165.2c-24.5,0-45.2,16.2-52.1,38.5c-0.7,2.5-1.5,5.3-1.9,7.9c0.5,0.5,1,1,1.8,1.7
		c13.9,12.4,32.2,19.9,52.2,19.9c20.8,0,39.8-8.1,53.9-21.5c-0.6-4-1.6-7.7-3-11.4C-42.3,1179.8-62.3,1165.2-85.5,1165.2z"/>
	<circle class="st4" cx="-85.5" cy="1154.6" r="78.5"/>
</g>
<circle class="st0" cx="-85" cy="-530.8" r="28.6"/>
<path class="st2" d="M-146.1-465.9c0,0,2.3,3.2,7.2,7.5c0.4-2.7,1-5.2,1.8-7.8L-146.1-465.9z"/>
<path class="st2" d="M-21.4-465.7l-13.7,0.4c1.5,3.8,2.5,7.9,3.1,12.1C-24.9-460-21.4-465.7-21.4-465.7z"/>
<path class="st1" d="M-34.1-469.6c-7.9-20.5-27.7-35.1-51-35.1c-24.5,0-45.2,16.2-52.1,38.4c-0.8,2.5-1.4,5.1-1.8,7.8
	c1.7,1.5,3.7,3.1,5.9,4.8c0.3-4.4,1.3-8.7,2.7-12.8c6.7-18.5,24.5-31.8,45.3-31.8c19.7,0,36.7,11.9,44.1,28.9
	c2.3,5.2,3.7,10.8,4,16.8c2.2-1.8,4.2-3.6,5.9-5.3C-31.6-462-32.7-465.9-34.1-469.6z"/>
<g>
	<g transform="scale(0.1953125, 0.1953125)">
		<path class="st1" d="M-91.2-761.6c-10.5-9.7-24.2-15.1-38.5-15.1c-1.3,0-2.6,0.1-3.9,0.1c-0.8,0.1-9.9,0.6-24,0.6
			c-23.5,0-69.4-1.6-112.8-12.2c-56.1-13.7-120.9-77.2-139.7-89.7c-9.5-6.3-20.4-9.4-31.4-9.4c-10.9,0-22.4,2.4-31.3,9.4
			c-16,12.6-70.1,73.6-136.4,89.7c-43.4,10.6-90.2,12.2-113.7,12.2c-14.2,0-23.2-0.5-24.1-0.6c-1.2-0.1-2.5-0.1-3.7-0.1
			c-14.3,0-28.1,5.4-38.6,15.1c-11.4,10.6-17.9,25.4-17.9,40.9v140.1c0,517.8,341.3,584.5,355.8,587.1c3.3,0.6,6.6,0.9,10,0.9
			c3.3,0,6.7-0.3,10-0.9c14.5-2.6,358.3-69.3,358.3-587.1v-140.1C-73.2-736.2-79.7-751-91.2-761.6L-91.2-761.6L-91.2-761.6z
			 M-108.9-590c0,508.8-332.7,567.6-332.7,567.6s-330-58.7-330-567.6v-149.4c0,0,11.4,0.8,29.8,0.8c31.6,0,84.7-2.3,135.6-14.7
			c83.4-20.3,164.6-104,164.6-104s84.9,83.7,168.2,104c51,12.4,103.2,14.7,134.8,14.7c18.4,0,29.8-0.8,29.8-0.8L-108.9-590
			L-108.9-590L-108.9-590z M-233.2-532.2c13.2-13.2,18.3-34.7,5.1-47.9l0,0c-13.2-13.2-34.7-8.1-47.9,5.1l-218.6,218.6l-109.9-109.9
			c-13.2-13.2-34.7-18.3-47.9-5.1c-13.2,13.2-8.1,34.7,5.1,47.9l128.7,128.7c13.2,13.2,34.7,13.2,47.9,0L-233.2-532.2z"/>
	</g>
</g>
<path class="st3" d="M-21.8,1507.1c-2-1.9-4.7-2.9-7.5-2.9c-0.3,0-0.5,0-0.8,0c-0.2,0-1.9,0.1-4.7,0.1c-4.6,0-13.5-0.3-22-2.4
	c-11-2.7-23.6-15.1-27.3-17.5c-1.9-1.2-4-1.8-6.1-1.8s-4.4,0.5-6.1,1.8c-3.1,2.5-13.7,14.4-26.6,17.5c-8.5,2.1-17.6,2.4-22.2,2.4
	c-2.8,0-4.5-0.1-4.7-0.1s-0.5,0-0.7,0c-2.8,0-5.5,1.1-7.5,3c-2.2,2.1-3.5,5-3.5,8v27.4c0,101.1,66.7,114.2,69.5,114.7
	c0.6,0.1,1.3,0.2,1.9,0.2c0.7,0,1.3-0.1,1.9-0.2c2.8-0.5,70-13.5,70-114.7v-27.4C-18.3,1512.1-19.6,1509.2-21.8,1507.1L-21.8,1507.1
	L-21.8,1507.1z"/>
<path class="st3" d="M-25.3,1540.6c0,99.4-65,110.9-65,110.9s-64.5-11.5-64.5-110.9v-29.2c0,0,2.2,0.2,5.8,0.2
	c6.2,0,16.5-0.4,26.5-2.9c16.3-4,32.2-20.3,32.2-20.3s16.6,16.4,32.8,20.3c10,2.4,20.2,2.9,26.3,2.9c3.6,0,5.8-0.2,5.8-0.2
	L-25.3,1540.6L-25.3,1540.6L-25.3,1540.6z"/>
<path class="st5" d="M-49.6,1551.9c2.6-2.6,3.6-6.8,1-9.4l0,0c-2.6-2.6-6.8-1.6-9.4,1l-42.6,42.8l-21.5-21.5c-2.6-2.6-6.8-3.6-9.4-1
	c-2.6,2.6-1.6,6.8,1,9.4l25.1,25.1c2.6,2.6,6.8,2.6,9.4,0L-49.6,1551.9z"/>
<path class="st1" d="M-135.9-1264.5c-5.8,0-12.7-3.4-12.7-13.2v-54.6h-11.6c-2.1,0-4.5-1.4-6.4-3.7c-2-2.4-3-5.5-3-8.7v-1.4
	l74.5-75.5c0.9-0.9,2.1-1.3,3.7-1.3c1.8,0,3.1,0.4,4,1.3c0.3,0.3,67.3,67.2,75,74.8l1,1v1.5c0,3.3-0.6,5.8-1.7,7.8
	c-1.5,2.5-4.1,3.9-7.3,3.9h-11.2l-0.2,55.4l-0.1,0.4c-0.1,0.3-0.8,3.1-2.7,5.9c-2.8,4.2-6.8,6.4-11.5,6.4h-27.6v-3.6
	c0-13.9,0-50.4,0-52c0-0.8-0.9-2.9-1.8-2.9h-29.9c-0.7,0-2,1.2-2,2.8v55.7h-27.7C-135.2-1264.5-135.6-1264.5-135.9-1264.5
	L-135.9-1264.5z M-159.8-1338.4h17.4v60.7c0,1.5,1,7.1,6.4,7.1c0.2,0,0.3,0,0.3,0h0.2h0.2h20.7v-49.6c0-5.3,4.3-9.9,9.2-9.9h29.9
	c2.9,0,5.4,1.4,7.1,4.1c1.3,2,1.9,4.3,1.9,5.8c0.1,1.7,0,38.1,0,49.7h20.3c4.7,0,7.6-5.1,8.1-6.5l0.2-62.6h17.4
	c0.8,0,0.9-0.2,1.1-0.5c0.2-0.3,0.5-1.1,0.7-2.7c-8.5-8.4-63.3-64.2-72.6-73.4l-70.9,73c0.4,2.4,0.9,3.6,1.4,4L-159.8-1338.4z"/>
<rect x="-116.9" y="-1270.5" class="st1" width="53.1" height="6"/>
<path class="st3" d="M-135.4,410.2c-5.8,0-12.7-3.4-12.7-13.2v-54.6h-11.6c-2.1,0-4.5-1.4-6.4-3.7c-2-2.4-3-5.5-3-8.7v-1.4
	l74.5-75.5c0.9-0.9,2.1-1.3,3.7-1.3c1.8,0,3.1,0.4,4,1.3c0.3,0.3,67.3,67.2,75,74.8l1,1v1.5c0,3.3-0.6,5.8-1.7,7.8
	c-1.5,2.5-4.1,3.9-7.3,3.9h-11.2l-0.2,55.4l-0.1,0.4c-0.1,0.3-0.8,3.1-2.7,5.9c-2.8,4.2-6.8,6.4-11.5,6.4h-27.6v-3.6
	c0-13.9,0-50.4,0-52c0-0.8-0.9-2.9-1.8-2.9h-29.8c-0.7,0-2,1.2-2,2.8v55.7h-27.7C-134.7,410.2-134.9,410.2-135.4,410.2L-135.4,410.2
	z"/>
<path class="st3" d="M-159.2,336.4h17.4v60.7c0,1.5,1,7.1,6.4,7.1c0.2,0,0.3,0,0.3,0h0.2h0.2h20.6v-49.6c0-5.3,4.3-9.9,9.2-9.9h29.9
	c2.9,0,5.4,1.4,7.1,4.1c1.3,2,1.9,4.3,1.9,5.8c0.1,1.7,0,38.1,0,49.7h20.3c4.7,0,7.6-5.1,8.1-6.5l0.2-62.6h17.4
	c0.8,0,0.9-0.2,1.1-0.5s0.5-1.1,0.7-2.7c-8.5-8.4-63.3-64.2-72.6-73.4l-70.9,73c0.4,2.4,0.9,3.6,1.4,4L-159.2,336.4z"/>
<rect x="-116.4" y="404.2" class="st3" width="53.1" height="6"/>
<g>
	<g>
		<path class="st3" d="M-84.9,829.4c-2.8,1.7-7.3,1.7-10.1,0l-64.4-37.1c-2.8-1.7-5.1-5.6-5.1-8.8v-74.3c0-3.2,2.3-7.1,5.1-8.8
			l64.4-37.1c2.8-1.7,7.3-1.7,10.1,0l64.4,37.1c2.8,1.7,5.1,5.6,5.1,8.8v74.3c0,3.2-2.3,7.1-5.1,8.8L-84.9,829.4z"/>
	</g>
	<g>
		<path class="st5" d="M-61,746c0,1.6-1.3,2.9-2.9,2.9h-52.3c-1.6,0-2.9-1.3-2.9-2.9v-4.9c0-1.6,1.3-2.9,2.9-2.9h52.3
			c1.6,0,2.9,1.3,2.9,2.9V746z"/>
		<path class="st5" d="M-61,766.1c0,1.6-1.3,2.9-2.9,2.9h-52.3c-1.6,0-2.9-1.3-2.9-2.9v-4.9c0-1.6,1.3-2.9,2.9-2.9h52.3
			c1.6,0,2.9,1.3,2.9,2.9V766.1z"/>
		<path class="st5" d="M-93,794.3c-2,0-3.5-1.2-3.5-2.7v-48.9c0-1.4,1.6-2.7,3.5-2.7h5.9c2,0,3.5,1.2,3.5,2.7v48.9
			c0,1.4-1.6,2.7-3.5,2.7H-93z"/>
		<path class="st5" d="M-83.5,749.8c-0.1-0.2-0.1-0.5-0.3-0.7l-26.3-45.2c-0.8-1.3-2.6-1.9-3.9-1l-4.1,2.4c-1.3,0.8-1.9,2.6-1,3.9
			l26.3,45.2c0.8,1.3,2.6,1.9,3.9,1l4.1-2.4c0.7-0.4,1.1-1,1.3-1.8V749.8z"/>
		<path class="st5" d="M-61.9,705.3l-4.1-2.4c-1.3-0.8-3.1-0.3-3.9,1l-26.3,45.2c-0.1,0.2-0.2,0.3-0.2,0.5v1.9
			c0.2,0.6,0.6,1.2,1.2,1.6l4.1,2.4c1.3,0.8,3.1,0.3,3.9-1l26.3-45.2C-60,707.8-60.5,706.1-61.9,705.3z"/>
	</g>
</g>
</svg>
