<?xml version="1.0" encoding="utf-8"?>
<!-- Generator: Adobe Illustrator 19.0.0, SVG Export Plug-In . SVG Version: 6.00 Build 0)  -->
<svg version="1.1" id="图层_1" xmlns="http://www.w3.org/2000/svg" xmlns:xlink="http://www.w3.org/1999/xlink" x="0px" y="0px"
	 viewBox="-239 176.9 88 44" style="enable-background:new -239 176.9 88 44;" xml:space="preserve">
<g>
	<path d="M-172.8,203.9c-0.1,0-0.2,0-0.4,0c-8.3-0.2-12-7.3-12.1-7.6c-0.4-0.9-0.1-1.9,0.8-2.4c0.9-0.4,1.9-0.1,2.4,0.8
		c0.1,0.2,2.9,5.5,9.1,5.6c6,0.2,8.4-5.3,8.5-5.5c0.4-0.9,1.4-1.3,2.3-1c0.9,0.4,1.3,1.4,1,2.3
		C-161.4,196.5-164.5,203.9-172.8,203.9z"/>
	<path d="M-185.2,200.8c-0.3,0-0.6-0.1-0.8-0.4c-0.3-0.4-0.2-1.1,0.2-1.4l2.8-2.1c0.4-0.3,1.1-0.2,1.4,0.2c0.3,0.4,0.2,1.1-0.2,1.4
		l-2.8,2.1C-184.8,200.8-185,200.8-185.2,200.8z"/>
	<path d="M-181.6,204.7c-0.2,0-0.4-0.1-0.6-0.2c-0.4-0.3-0.5-0.9-0.2-1.4l2-2.8c0.3-0.4,0.9-0.5,1.4-0.2c0.4,0.3,0.5,0.9,0.2,1.4
		l-2,2.8C-181,204.5-181.3,204.7-181.6,204.7z"/>
	<path d="M-176.8,206.9c-0.1,0-0.2,0-0.3,0c-0.5-0.1-0.8-0.7-0.7-1.2l1-3.4c0.1-0.5,0.7-0.8,1.2-0.7c0.5,0.1,0.8,0.7,0.7,1.2l-1,3.4
		C-175.9,206.6-176.3,206.9-176.8,206.9z"/>
	<path d="M-161.1,200.8c-0.2,0-0.4-0.1-0.6-0.2l-2.8-2.1c-0.4-0.3-0.5-0.9-0.2-1.4c0.3-0.4,0.9-0.5,1.4-0.2l2.8,2.1
		c0.4,0.3,0.5,0.9,0.2,1.4C-160.5,200.7-160.8,200.8-161.1,200.8z"/>
	<path d="M-164.8,204.7c-0.3,0-0.6-0.1-0.8-0.4l-2-2.8c-0.3-0.4-0.2-1.1,0.2-1.4c0.4-0.3,1.1-0.2,1.4,0.2l2,2.8
		c0.3,0.4,0.2,1.1-0.2,1.4C-164.4,204.6-164.6,204.7-164.8,204.7z"/>
	<path d="M-169.6,206.9c-0.4,0-0.8-0.3-0.9-0.7l-1-3.4c-0.1-0.5,0.2-1.1,0.7-1.2c0.5-0.1,1.1,0.2,1.2,0.7l1,3.4
		c0.1,0.5-0.2,1.1-0.7,1.2C-169.5,206.9-169.5,206.9-169.6,206.9z"/>
</g>
<g>
	<path d="M-216.3,207.8c-0.1,0-0.2,0-0.4,0c-8.7-0.2-12.5-8-12.7-8.3c-0.4-0.9,0-2,0.9-2.5c0.9-0.4,2,0,2.5,0.9
		c0.1,0.3,3,6.1,9.5,6.2c6.4,0.2,9.2-6.1,9.2-6.2c0.4-0.9,1.5-1.4,2.4-0.9c0.9,0.4,1.4,1.5,0.9,2.4
		C-204.1,199.8-207.7,207.8-216.3,207.8z"/>
	<path d="M-227.7,200.2c-0.2,0-0.4,0-0.6-0.1c-0.9-0.3-1.4-1.1-1.3-2c0-0.1,0.1-0.3,0.2-0.6l0,0c0.1-0.1,0.1-0.2,0.2-0.3
		c1.2-2.2,5.5-7.4,12.5-7.6c0.1,0,0.3,0,0.4,0c8.5,0,12.1,7.5,12.3,7.9c0.4,0.9,0,2-0.9,2.5c-0.9,0.4-2,0-2.5-0.9
		c-0.1-0.2-2.9-5.9-9.3-5.7c-6.3,0.2-9.4,5.6-9.5,5.9C-226.4,199.8-227,200.2-227.7,200.2z"/>
	<path d="M-216.4,202.7c-2.2,0-4-1.8-4-4c0-2.2,1.8-4,4-4c2.2,0,4,1.8,4,4C-212.4,200.9-214.2,202.7-216.4,202.7z M-216.4,196.7
		c-1.1,0-2,0.9-2,2s0.9,2,2,2c1.1,0,2-0.9,2-2S-215.3,196.7-216.4,196.7z"/>
</g>
</svg>
