<?xml version="1.0" encoding="utf-8"?>
<!-- Generator: Adobe Illustrator 19.0.0, SVG Export Plug-In . SVG Version: 6.00 Build 0)  -->
<svg version="1.1" id="图层_1" xmlns="http://www.w3.org/2000/svg" xmlns:xlink="http://www.w3.org/1999/xlink" x="0px" y="0px"
	 viewBox="-183 98.9 200 200" style="enable-background:new -183 98.9 200 200;" xml:space="preserve">
<style type="text/css">
	.st0{fill:#F86C36;}
</style>
<path class="st0" d="M-9.3,135.7c-10.5-10.5-24.5-16.3-39.5-16.3c-14.9,0-28.9,5.8-39.5,16.3l-38.3,38.2c-2.9,2.9-2.9,7.5,0,10.4
	c1.4,1.4,3.3,2.2,5.2,2.2c1.9,0,3.8-0.8,5.2-2.2l38.2-38.2c7.7-7.7,18.1-12,29.1-12c11,0,21.3,4.3,29.1,12c16,16,16,42.1,0,58.2
	L-83,267.7l-63.4-63.4c-7.7-7.7-12-18.1-12-29.1s4.3-21.4,12-29.1c7.7-7.7,18-12,28.9-12c2.3,0,4.2,0.1,6,0.4l0.1,0
	c0.1,0,0.2,0,0.3,0c0.2,0,0.4,0.1,0.6,0.1c3.6,0,6.7-2.7,7.3-6.3c0.6-4-2.2-7.8-6.2-8.3c-2.5-0.4-5.2-0.6-7.9-0.6
	c-5.8,0-11.6,0.9-17.2,2.6c-8.4,2.7-15.9,7.3-22.2,13.6c-10.6,10.6-16.4,24.6-16.3,39.6c0,14.9,5.8,28.9,16.3,39.4l68.6,68.6
	c1.4,1.4,3.3,2.2,5.2,2.2s3.8-0.8,5.2-2.2l68.6-68.6C12.5,192.8,12.5,157.4-9.3,135.7z"/>
</svg>
