<?xml version="1.0" encoding="utf-8"?>
<!-- Generator: Adobe Illustrator 19.0.0, SVG Export Plug-In . SVG Version: 6.00 Build 0)  -->
<svg version="1.1" id="图层_1" xmlns="http://www.w3.org/2000/svg" xmlns:xlink="http://www.w3.org/1999/xlink" x="0px" y="0px"
	 viewBox="-183 98.9 200 200" style="enable-background:new -183 98.9 200 200;" xml:space="preserve">
<style type="text/css">
	.st0{fill:#F86C36;}
</style>
<path class="st0" d="M-0.8,157.2c2.8,0,5.1-2.3,5.1-5.1v-16.6c0-2.8-2.3-5.1-5.1-5.1h-164.5c-2.8,0-5.1,2.3-5.1,5.1v18.4
	c0,2.8,2.3,5.1,5.1,5.1s5.1,2.3,5.1,5.1s-2.3,5.1-5.1,5.1s-5.1,2.3-5.1,5.1v16.4c0,2.8,2.3,5.1,5.1,5.1s5.1,2.3,5.1,5.1
	s-2.3,5.1-5.1,5.1s-5.1,2.3-5.1,5.1v16.1c0,2.8,2.3,5.1,5.1,5.1s5.1,2.3,5.1,5.1s-2.3,5.1-5.1,5.1s-5.1,2.3-5.1,5.1v14.6
	c0,2.8,2.3,5.1,5.1,5.1H-1c2.8,0,5.1-2.3,5.1-5.1v-16.6c0-2.8-2.3-5.1-5.1-5.1s-5.1-2.3-5.1-5.1s2.3-5.1,5.1-5.1s5.1-2.3,5.1-5.1
	v-16.1c0-2.8-2.3-5.1-5.1-5.1s-5.1-2.3-5.1-5.1s2.3-5.1,5.1-5.1s5.1-2.3,5.1-5.1v-16.1c0-2.8-2.3-5.1-5.1-5.1s-5.1-2.3-5.1-5.1
	C-6.2,159.5-3.9,157.2-0.8,157.2L-0.8,157.2z M-5.9,147.7c-5.9,2-10.2,7.7-10.2,14.6c0,6.9,4.3,12.3,10.2,14.6v7.7
	c-5.9,2-10.2,7.7-10.2,14.6c0,6.9,4.3,12.3,10.2,14.6v7.7c-5.9,2-10.2,7.7-10.2,14.6c0,6.9,4.3,12.3,10.2,14.6v7.2h-154.3v-5.1
	c5.9-2,10.2-7.7,10.2-14.6c0-6.9-4.3-12.3-10.2-14.6v-7.7c5.9-2,10.2-7.7,10.2-14.6c0-6.9-4.3-12.3-10.2-14.6V179
	c5.9-2,10.2-7.7,10.2-14.6c0-6.9-4.3-12.3-10.2-14.6v-9.2h154v7.2L-5.9,147.7L-5.9,147.7z M-120.9,236.7c1,1,2.3,1.5,3.6,1.5
	c1.3,0,2.6-0.5,3.6-1.5l68.3-68.3c2-2,2-5.1,0-7.2c-2-2-5.1-2-7.2,0l-68.3,68.3C-122.9,231.6-122.9,234.7-120.9,236.7L-120.9,236.7z
	 M-109.2,196.8c8.4,0,15.6-6.9,15.6-15.6c0-8.7-6.9-15.6-15.6-15.6s-15.6,6.9-15.6,15.6C-124.9,189.9-117.7,196.8-109.2,196.8
	L-109.2,196.8z M-109.2,176.1c2.8,0,5.4,2.3,5.4,5.4c0,3.1-2.3,5.4-5.4,5.4s-5.4-2.3-5.4-5.4C-114.6,178.4-112.1,176.1-109.2,176.1
	L-109.2,176.1z M-59.4,203.5c-8.4,0-15.6,6.9-15.6,15.6s6.9,15.6,15.6,15.6s15.6-6.9,15.6-15.6S-50.9,203.5-59.4,203.5L-59.4,203.5z
	 M-59.4,224.2c-2.8,0-5.4-2.3-5.4-5.4c0-2.8,2.3-5.4,5.4-5.4c2.8,0,5.4,2.3,5.4,5.4S-56.6,224.2-59.4,224.2L-59.4,224.2z"/>
</svg>
