<?xml version="1.0" encoding="utf-8"?>
<!-- Generator: Adobe Illustrator 19.0.0, SVG Export Plug-In . SVG Version: 6.00 Build 0)  -->
<svg version="1.1" id="图层_1" xmlns="http://www.w3.org/2000/svg" xmlns:xlink="http://www.w3.org/1999/xlink" x="0px" y="0px"
	 viewBox="-183 98.9 200 200" style="enable-background:new -183 98.9 200 200;" xml:space="preserve">
<style type="text/css">
	.st0{fill:#F86C36;}
</style>
<path class="st0" d="M-98.1,177.9c19.6,0,39.9-4.3,52.2-12.5v14.9h11.3v-32.7c0-19.7-32.7-30.3-63.5-30.3s-63.5,10.6-63.5,30.3v89.3
	c0,19.7,32.7,30.3,63.5,30.3v-11.3c-32.3,0-52.2-11.1-52.2-19V210c12.2,8.2,32.6,12.5,52.2,12.5v-11.3c-32.3,0-52.2-11.1-52.2-19
	v-26.9C-138,173.6-117.6,177.9-98.1,177.9L-98.1,177.9z M-98.1,128.6c32.3,0,52.2,11.1,52.2,19c0,7.9-19.8,19-52.2,19
	c-32.3,0-52.2-11.1-52.2-19C-150.2,139.7-130.4,128.6-98.1,128.6L-98.1,128.6z M-47.2,184.1c-28.1,0-42.8,10.8-42.8,21.5V263
	c0,10.7,14.7,21.5,42.8,21.5c27.9,0,42.6-10.7,42.8-21.3l0,0v-57.6C-4.5,194.9-19.2,184.1-47.2,184.1L-47.2,184.1z M-47.2,195.4
	c20.8,0,31.5,7.1,31.5,10.2c0,3-10.7,10.2-31.5,10.2s-31.5-7.1-31.5-10.2S-68.1,195.4-47.2,195.4L-47.2,195.4z M-47.2,273.1
	c-20.8,0-31.5-7.1-31.5-10.2v-13.7c7.2,3.9,17.7,6.5,31.5,6.5s24.3-2.6,31.5-6.5v13.7C-15.8,266-26.5,273.1-47.2,273.1L-47.2,273.1z
	 M-47.2,244.4c-20.8,0-31.5-7.1-31.5-10.2v-13.7c7.2,3.9,17.7,6.5,31.5,6.5s24.3-2.6,31.5-6.5v13.7
	C-15.8,237.3-26.5,244.4-47.2,244.4L-47.2,244.4z"/>
</svg>
