<?xml version="1.0" encoding="utf-8"?>
<!-- Generator: Adobe Illustrator 19.0.0, SVG Export Plug-In . SVG Version: 6.00 Build 0)  -->
<svg version="1.1" id="图层_1" xmlns="http://www.w3.org/2000/svg" xmlns:xlink="http://www.w3.org/1999/xlink" x="0px" y="0px"
	 viewBox="-183 98.9 200 200" style="enable-background:new -183 98.9 200 200;" xml:space="preserve">
<style type="text/css">
	.st0{fill:#999999;}
	.st1{clip-path:url(#SVGID_5_);}
	.st2{clip-path:url(#SVGID_7_);fill:#999999;}
</style>
<g>
	<g>
		<g>
			<path id="SVGID_1_" class="st0" d="M-31.3,287.6c4.6-4.3,4.6-11.3,0-15.6l-78.4-73.1l78.4-73.2c4.6-4.3,4.6-11.3,0-15.6
				c-4.6-4.3-12.1-4.3-16.7,0l-86.7,81c-4.6,4.3-4.6,11.3,0,15.6l86.7,81c2.3,2.1,5.4,3.2,8.4,3.2S-33.6,289.8-31.3,287.6z"/>
		</g>
		<g>
			<defs>
				<path id="SVGID_2_" d="M-31.3,287.6c4.6-4.3,4.6-11.3,0-15.6l-78.4-73.1l78.4-73.2c4.6-4.3,4.6-11.3,0-15.6
					c-4.6-4.3-12.1-4.3-16.7,0l-86.7,81c-4.6,4.3-4.6,11.3,0,15.6l86.7,81c2.3,2.1,5.4,3.2,8.4,3.2S-33.6,289.8-31.3,287.6z"/>
			</defs>
			<clipPath id="SVGID_5_">
				<use xlink:href="#SVGID_2_"  style="overflow:visible;"/>
			</clipPath>
			<g class="st1">
				<g>
					<rect id="SVGID_3_" x="-800.6" y="-4419.5" class="st0" width="6900" height="12272.8"/>
				</g>
				<g>
					<g>
						<rect id="SVGID_4_" x="-800.6" y="-4419.5" class="st0" width="6900" height="12272.8"/>
					</g>
					<g>
						<defs>
							<rect id="SVGID_6_" x="-800.6" y="-4419.5" width="6900" height="12272.8"/>
						</defs>
						<clipPath id="SVGID_7_">
							<use xlink:href="#SVGID_6_"  style="overflow:visible;"/>
						</clipPath>
						<rect x="-184.2" y="60.9" class="st2" width="202.4" height="276"/>
					</g>
				</g>
			</g>
		</g>
	</g>
</g>
</svg>
