<?xml version="1.0" encoding="utf-8"?>
<!-- Generator: Adobe Illustrator 19.0.0, SVG Export Plug-In . SVG Version: 6.00 Build 0)  -->
<svg version="1.1" id="图层_1" xmlns="http://www.w3.org/2000/svg" xmlns:xlink="http://www.w3.org/1999/xlink" x="0px" y="0px"
	 viewBox="-183 98.9 200 200" style="enable-background:new -183 98.9 200 200;" xml:space="preserve">
<style type="text/css">
	.st0{fill:#F86C36;}
</style>
<path class="st0" d="M11.4,270.4h-14v-81.6c0-5.9-4.7-10.6-10.6-10.6h-136.9c-5.9,0-10.6,4.7-10.6,10.6v81.6h-16.7
	c-3.1,0-5.8,2.5-5.8,5.8c0,3.1,2.6,5.8,5.8,5.8H11.4c3.1,0,5.8-2.6,5.8-5.8C17.1,272.9,14.6,270.4,11.4,270.4z M-14.5,270.4h-134.3
	v-53.8c0.6,1.3,1.4,2.5,2,4.1c3.4,6.9,7.4,15.4,16.8,15.4s13.5-8.6,16.8-15.4c2.7-5.7,4.8-9.5,7.4-9.5c2.5,0,4.7,4,7.3,9.5
	c3.4,6.9,7.4,15.4,16.8,15.4s13.5-8.6,16.9-15.4c2.7-5.5,4.8-9.5,7.4-9.5c2.5,0,4.7,4,7.4,9.5c3.4,6.9,7.4,15.4,16.9,15.4
	c9.3,0,13.5-8.6,16.9-15.4c0.6-1.4,1.4-2.7,1.9-3.9v53.6H-14.5L-14.5,270.4z M-14.5,201.8c-5.7,2.5-8.8,8.9-11.4,14.2
	c-2.7,5.7-4.8,9.5-7.4,9.5s-4.7-4-7.4-9.5c-3.4-6.9-7.4-15.4-16.9-15.4c-9.3,0-13.5,8.6-16.8,15.4c-2.7,5.7-4.8,9.5-7.4,9.5
	c-2.5,0-4.6-4-7.3-9.5c-3.4-6.9-7.4-15.4-16.8-15.4s-13.5,8.6-16.8,15.4c-2.7,5.7-4.8,9.5-7.3,9.5c-2.5,0-4.7-4-7.3-9.5
	c-2.6-5.3-5.8-11.8-11.4-14.3v-10.5h134.3L-14.5,201.8z M-120.3,127.5c2.8,0,5-2.3,5-5v-4.9c0-2.8-2.3-5-5-5c-2.8,0-5.1,2.3-5.1,5
	v4.9C-125.4,125.3-123.2,127.5-120.3,127.5z M-120.3,136c-2.5,0-4.5,2-4.5,4.5V172c0,2.5,2,4.5,4.5,4.5c2.4,0,4.4-2,4.4-4.5v-31.5
	C-115.8,138-117.9,136-120.3,136z M-82.7,127.5c2.8,0,5-2.3,5-5v-4.9c0-2.8-2.3-5-5-5c-2.8,0-5,2.3-5,5v4.9
	C-87.8,125.3-85.5,127.5-82.7,127.5z M-82.7,136c-2.5,0-4.5,2-4.5,4.5V172c0,2.5,2,4.5,4.5,4.5c2.4,0,4.4-2,4.4-4.5v-31.5
	C-78.2,138-80.2,136-82.7,136z M-45,127.5c2.8,0,5-2.3,5-5v-4.9c0-2.8-2.3-5-5-5c-2.8,0-5.1,2.3-5.1,5v4.9
	C-50.2,125.3-47.9,127.5-45,127.5z M-45,136c-2.5,0-4.5,2-4.5,4.5V172c0,2.5,2,4.5,4.5,4.5c2.4,0,4.4-2,4.4-4.5v-31.5
	C-40.6,138-42.6,136-45,136z"/>
</svg>
