<?xml version="1.0" encoding="utf-8"?>
<!-- Generator: Adobe Illustrator 19.0.0, SVG Export Plug-In . SVG Version: 6.00 Build 0)  -->
<svg version="1.1" id="图层_1" xmlns="http://www.w3.org/2000/svg" xmlns:xlink="http://www.w3.org/1999/xlink" x="0px" y="0px"
	 viewBox="-183 98.9 200 200" style="enable-background:new -183 98.9 200 200;" xml:space="preserve">
<style type="text/css">
	.st0{fill:#F86C36;}
	.st1{stroke:#000000;stroke-width:2;stroke-miterlimit:10;}
</style>
<g>
	<path class="st0" d="M-150.3,228c-1.7,0-3.3-0.7-4.6-1.9L-173,208c-1.5-1.5-2.1-3.6-1.8-5.7l13.5-75.7c0.5-2.6,2.5-4.8,5.1-5.2
		l76-13.9c2.1-0.4,4.2,0.3,5.7,1.8l37.2,37.2c2.5,2.5,2.5,6.6,0,9.2c-2.5,2.5-6.6,2.5-9.2,0l-34.8-34.8l-68.4,12.5l-12.1,68
		L-146,217c2.5,2.5,2.5,6.6,0,9.2C-147.1,227.4-148.7,228-150.3,228z"/>
	<path class="st0" d="M-76.5,291.3c-8.6,0-16.7-3.4-22.8-9.4l-28.4-28.4c-2.5-2.5-2.5-6.6,0-9.2s6.6-2.5,9.2,0l28.4,28.4
		c3.6,3.6,8.5,5.7,13.7,5.7l0,0c5.1,0,10.1-2.1,13.7-5.7l53.1-53.1c3.6-3.6,5.7-8.5,5.7-13.7s-2.1-10.1-5.7-13.7l-12.2-12.2
		c-2.5-2.5-2.5-6.6,0-9.2s6.6-2.5,9.2,0L-0.4,183c6.1,6.1,9.4,14.2,9.4,22.8c0,8.6-3.4,16.7-9.4,22.8l-53.1,53.1
		C-59.6,287.9-67.8,291.3-76.5,291.3L-76.5,291.3z"/>
	<path class="st0" d="M-160.9,241.7c-2.1,0-4.1-1-5.3-2.8c-2-2.9-1.2-6.9,1.7-9l121.7-83c2.9-2.1,6.9-1.2,9,1.7c2,2.9,1.2,6.9-1.7,9
		l-121.7,83C-158.4,241.3-159.6,241.7-160.9,241.7z"/>
	<path class="st0" d="M-126.4,253.3c-2.1,0-4.1-1-5.3-2.8c-2-2.9-1.2-6.9,1.7-9l121.7-83c3-2.1,6.9-1.2,9,1.7c2,2.9,1.2,6.9-1.7,9
		l-121.7,83C-123.9,253-125.1,253.3-126.4,253.3z"/>
	<path class="st0" d="M-119.3,149c3.8,3.8,3.8,10.2,0,14c-3.9,3.9-10.2,3.9-14,0c-3.9-3.8-3.9-10.2,0-14
		C-129.5,145.1-123.2,145.1-119.3,149"/>
</g>
<path class="st1" d="M800,238.2c-10.3-10.3-24.1-16-38.8-16s-28.4,5.7-38.8,16l-38.3,38.2c-2.5,2.5-2.5,6.5,0,9
	c1.2,1.2,2.8,1.9,4.5,1.9s3.3-0.7,4.5-1.9l38.2-38.2c7.9-7.9,18.5-12.3,29.8-12.3s21.9,4.4,29.8,12.3c16.4,16.4,16.4,43.2,0,59.6
	L727,371l-64.1-64.1c-16.4-16.4-16.4-43.2,0-59.6c7.9-7.9,18.5-12.3,29.6-12.3c2,0,4.1,0.1,6.1,0.4c0.3,0,0.6,0.1,0.9,0.1
	c3.1,0,5.8-2.3,6.3-5.4c0.5-3.5-1.9-6.7-5.4-7.2c-2.5-0.4-5.1-0.6-7.7-0.6c-5.8,0-11.5,0.9-16.9,2.6c-8.3,2.7-15.6,7.2-21.8,13.4
	c-21.4,21.4-21.4,56.2,0,77.5l68.6,68.6c1.2,1.2,2.8,1.9,4.5,1.9s3.3-0.7,4.5-1.9l68.6-68.6C821.4,294.5,821.4,259.6,800,238.2z"/>
</svg>
