<?xml version="1.0" standalone="no"?>
<!DOCTYPE svg PUBLIC "-//W3C//DTD SVG 1.1//EN" "http://www.w3.org/Graphics/SVG/1.1/DTD/svg11.dtd" >
<svg xmlns="http://www.w3.org/2000/svg">
<metadata>
Created by FontForge 20120731 at Thu Apr  6 16:15:22 2017
 By admin
</metadata>
<defs>
<font id="iconfont" horiz-adv-x="1024" >
  <font-face 
    font-family="iconfont"
    font-weight="500"
    font-stretch="normal"
    units-per-em="1024"
    panose-1="2 0 6 3 0 0 0 0 0 0"
    ascent="896"
    descent="-128"
    x-height="792"
    bbox="29 -95 990 863"
    underline-thickness="0"
    underline-position="0"
    unicode-range="U+0078-E630"
  />
<missing-glyph 
 />
    <glyph glyph-name=".notdef" 
 />
    <glyph glyph-name=".notdef" 
 />
    <glyph glyph-name=".null" horiz-adv-x="0" 
 />
    <glyph glyph-name="nonmarkingreturn" horiz-adv-x="341" 
 />
    <glyph glyph-name="x" unicode="x" horiz-adv-x="1001" 
d="M281 543q-27 -1 -53 -1h-83q-18 0 -36.5 -6t-32.5 -18.5t-23 -32t-9 -45.5v-76h912v41q0 16 -0.5 30t-0.5 18q0 13 -5 29t-17 29.5t-31.5 22.5t-49.5 9h-133v-97h-438v97zM955 310v-52q0 -23 0.5 -52t0.5 -58t-10.5 -47.5t-26 -30t-33 -16t-31.5 -4.5q-14 -1 -29.5 -0.5
t-29.5 0.5h-32l-45 128h-439l-44 -128h-29h-34q-20 0 -45 1q-25 0 -41 9.5t-25.5 23t-13.5 29.5t-4 30v167h911zM163 247q-12 0 -21 -8.5t-9 -21.5t9 -21.5t21 -8.5q13 0 22 8.5t9 21.5t-9 21.5t-22 8.5zM316 123q-8 -26 -14 -48q-5 -19 -10.5 -37t-7.5 -25t-3 -15t1 -14.5
t9.5 -10.5t21.5 -4h37h67h81h80h64h36q23 0 34 12t2 38q-5 13 -9.5 30.5t-9.5 34.5q-5 19 -11 39h-368zM336 498v228q0 11 2.5 23t10 21.5t20.5 15.5t34 6h188q31 0 51.5 -14.5t20.5 -52.5v-227h-327z" />
    <glyph glyph-name="ic_close" unicode="&#xe611;" 
d="M979 383q0 95 -37 181.5t-99.5 149t-149 99.5t-181.5 37t-181.5 -37t-149 -99.5t-99 -149t-36.5 -181.5t37 -181.5t99.5 -149t148.5 -99t181 -36.5t181.5 36.5t149 99t99.5 149t37 181.5zM512 -47q-116 0 -215.5 57.5t-157 156.5t-57.5 216t57.5 216t157 157t216 58
t215.5 -58t157 -157t58 -216t-58 -216t-157 -156.5t-216 -57.5zM725 147q-7 0 -13 5l-432 432q-5 6 -5 13t5 12q5 6 12.5 6t12.5 -6l432 -432q6 -5 6 -12.5t-6 -12.5q-5 -5 -12 -5zM292.5 147q-7.5 0 -12.5 5t-5 12.5t5 12.5l432 432q6 6 13 6t12 -6q6 -5 6 -12.5t-6 -12.5
l-432 -432q-5 -5 -12.5 -5z" />
    <glyph glyph-name="ic_guarantee" unicode="&#xe612;" 
d="M889 699q-1 24 -19.5 42t-43.5 18q-136 0 -260 72q-10 6 -19 12q-15 10 -35 10q-18 0 -35 -9q-1 -2 -14 -9.5t-41 -20.5t-60.5 -25t-77 -21t-87.5 -10q-26 0 -44 -18.5t-18 -43.5v-371q0 -39 6.5 -73.5t29 -81.5t60.5 -87t107.5 -84t163.5 -81l10 -3l11 3q94 37 163.5 81
t107.5 84t60.5 86.5t28.5 81t6 74.5v374zM449 791v0v0v0zM856 320q0 -21 -1 -34.5t-7.5 -44t-18.5 -54.5t-37.5 -58t-60.5 -62.5t-91.5 -61t-127.5 -60.5q-70 28 -126.5 60.5t-92 61.5t-61 63t-37.5 57.5t-18.5 54t-7 44.5t-0.5 34v326l-1 78q34 0 78 5q111 11 204 59
q33 18 62 40q28 -22 61 -40v0q90 -48 205 -60q34 -4 78 -4v-404zM536 380v27q0 7 -7 7h-11q-8 0 -8 -7v-27q-18 -8 -18 -28q0 -13 9 -22.5t22 -9.5t22 9.5t9 22.5q0 19 -18 28zM644 493h-7v42q0 42 -30 72t-72 30h-25q-41 0 -71 -30t-30 -72v-42h-10q-54 0 -54 -58v-152
q0 -58 58 -58h241q58 0 58 58v152q0 58 -58 58zM445 535q0 27 19 46t46 19h25q27 0 46.5 -19t19.5 -46v-42h-156v42zM668 282q0 -14 -4.5 -19t-19.5 -5h-241q-15 0 -19.5 5t-4.5 19v152q0 15 3 19.5t17 4.5h245q15 0 19.5 -4.5t4.5 -19.5v-152z" />
    <glyph glyph-name="ic_help" unicode="&#xe613;" 
d="M504 817q88 0 168 -34.5t138.5 -92.5t92.5 -138t34 -168t-34 -168.5t-92.5 -138.5t-138.5 -92.5t-168 -34.5t-168.5 34.5t-138.5 92.5t-92.5 138.5t-34.5 168.5t34.5 168t92.5 138t138.5 92.5t168.5 34.5zM503.5 853q-95.5 0 -182.5 -37t-149.5 -100t-100 -150
t-37.5 -182.5t37.5 -182.5t100 -150t149.5 -100t182.5 -37t182.5 37t150 100t100 150t37 182.5t-37 182.5t-100 150t-150 100t-182.5 37zM512 596q-70 0 -110 -41q-41 -42 -41 -113q1 -11 9 -18.5t19 -7.5q12 0 20 7.5t9 18.5v1v1q1 105 92 105q37 0 59 -20q23 -20 23 -53
q0 -38 -43 -76l-21 -19q-31 -27 -40 -48t-9 -67v-2q0 -11 7.5 -18.5t17.5 -7.5q11 0 18.5 7t7.5 17l1 10q0 47 45 83q75 62 75 118q0 55 -39 89q-38 34 -100 34zM506 192q-15 0 -24 -11q-11 -10 -11 -25t10.5 -25t24.5 -10q16 0 25 10q10 10 10 25t-10 25.5t-25 10.5z" />
    <glyph glyph-name="ic_sign" unicode="&#xe614;" 
d="M845 801h-106v37q0 8 -5 13t-12 5h-7q-8 0 -13 -5t-5 -13v-37h-374v37q0 18 -15 18h-11q-7 0 -12 -5t-5 -13v-37h-125q-39 0 -63.5 -26.5t-24.5 -65.5v-702q0 -45 23 -67t65 -22h708q39 0 63.5 25.5t24.5 63.5v702q0 36 -32.5 64t-73.5 28zM908 562v-534q1 -29 -16 -46.5
t-38 -18.5h-690q-22 0 -37 17t-17 48v544h797v-10h1zM908 617h-797v92q0 15 15 30.5t29 15.5h124v-46q0 -8 5 -13t12 -5h12q14 0 14 18v46h373v-46q0 -8 6.5 -13t14.5 -5h5q7 0 12.5 5t5.5 13v46h123q14 0 29.5 -15.5t15.5 -30.5zM448 150q10 -11 23.5 -11t23.5 11l240 266
q28 30 12 46q-17 18 -38 -5l-237 -262l-137 151q-7 3 -13 3t-10 -3l-3 -2q-19 -20 5 -45z" />
    <glyph glyph-name="ic_home" unicode="&#xe615;" 
d="M972 408q-91 90 -442 441q-8 8 -24 8q-14 0 -21 -8l-440 -445v-9q0 -37 12 -51q8 -10 21 -16t23 -6h68v-322q0 -39 22.5 -58t52.5 -19q4 0 5 -1h163v1h198v-1h163q43 0 68 38q8 13 16 35v2l1 327h67q29 0 43 23q10 18 10 46v9zM610 -42h-198v293q0 6 4 11t8 5h175
q4 0 7.5 -6.5t3.5 -10.5v-292zM932 369q-2 -3 -6 -3h-103l-1 -370q-3 -10 -16.5 -24.5t-31.5 -14.5h-102v1h-18q0 20 0.5 99t0.5 134t-1 60q0 16 -11 34q-16 24 -42 24h-177q-21 0 -37.5 -17.5t-16.5 -40.5v-293h-124h-2q-21 0 -29.5 15t-8.5 27v358h-103l-5 5q-6 4 -9 24
l419 431q23 -23 212 -214.5t217 -219.5q-2 -11 -5 -15z" />
    <glyph glyph-name="ic_home_selected" unicode="&#xe616;" 
d="M970 410q-180 178 -441 439q-8 8 -23 8q-14 0 -22 -8l-439 -445v-9q0 -37 12 -51q8 -10 21 -16t23 -6h68v-322q0 -39 22.5 -58t52.5 -19q4 0 5 1h523q45 0 68 35q10 13 17 36l1 3l1 327h65q30 0 44 23q10 17 10 45v9zM412 -41v293q0 6 4.5 11t7.5 5h175q4 0 7.5 -6.5
t3.5 -10.5v-292h-198z" />
    <glyph glyph-name="ic_investment" unicode="&#xe617;" 
d="M898 626l-358 207q-11 6 -28 6q-16 0 -29 -6l-356 -206q-12 -7 -20 -21.5t-8 -27.5v-412q0 -14 8 -28t20 -21l357 -206q11 -6 28 -6q16 0 29 6l357 206q11 7 19.5 21.5t8.5 27.5v412q0 13 -8.5 27.5t-19.5 20.5zM889 165q0 -4 -3.5 -10t-6.5 -8l-357 -206q-4 -2 -10 -2
t-9 2l-357 206q-4 2 -7.5 8t-3.5 10v413q0 3 3.5 9t7.5 9l357 205q1 2 9 2q6 0 10 -2l357 -205q3 -3 6.5 -9t3.5 -9v-413zM675 594l-23 14q-5 3 -12 1.5t-10 -7.5l-111 -191h-2l-111 191q-9 13 -21 6l-24 -14q-13 -9 -6 -21l94 -162h-76q-7 0 -12 -5t-5 -11v-28q0 -6 5 -11
t12 -5h109v-53h-109q-7 0 -12 -5t-5 -11v-27q0 -7 5 -11.5t12 -4.5h109v-126q0 -6 5.5 -10.5t13.5 -4.5h34q8 0 13.5 4.5t5.5 10.5v126h109q7 0 12 4.5t5 11.5v0v27q0 7 -5 11.5t-11 4.5h-110v53h109q7 0 12 5t5 11v0v28q0 6 -5 11t-11 5h-78l94 161q8 13 -5 22z" />
    <glyph glyph-name="ic_investment_selected" unicode="&#xe618;" 
d="M539 -83q-11 -8 -27.5 -8t-28.5 8l-357 206q-11 7 -19.5 21.5t-8.5 27.5v413q0 13 8.5 27.5t19.5 21.5l357 206q12 7 28.5 7t27.5 -7l357 -206q12 -8 20.5 -22t8.5 -27v-413q0 -14 -8.5 -28t-20.5 -21zM667 606l-23 14q-5 3 -11.5 1.5t-10.5 -7.5l-110 -191h-2l-110 191
q-4 6 -10 8t-12 -2l-23 -14q-5 -3 -7 -9.5t2 -11.5l93 -162h-77q-7 0 -11.5 -4.5t-4.5 -11.5v-27q0 -7 4.5 -11.5t11.5 -4.5h110v-52h-110q-7 0 -11.5 -4.5t-4.5 -11.5v-27q0 -7 4.5 -12t11.5 -5h110v-125q0 -7 5.5 -11t13.5 -4h32q8 0 14 4.5t6 10.5v125h109q6 0 11 5t5 12
v27q0 7 -5 11.5t-11 4.5h-109v37v1.5v0.5v8v1v1v3h109q6 0 11 4.5t5 11.5v27q0 7 -5 11.5t-11 4.5h-77l93 161q9 15 -5 22z" />
    <glyph glyph-name="ic_personal" unicode="&#xe619;" 
d="M507 856q-95 0 -181.5 -37t-149.5 -100t-100 -149.5t-37 -181.5t37 -182t100 -149.5t149.5 -99.5t182 -37t182 37t149 99.5t99.5 149.5t37 182t-37 182t-99.5 149.5t-149.5 99.5t-182 37zM507 -45q-159 0 -281 105q4 20 11 37q30 84 104 137t166 53q87 0 158 -47.5
t105 -124.5q14 -33 19 -55q-123 -105 -282 -105zM355 480q0 63 44.5 107.5t107.5 44.5t107.5 -44.5t44.5 -107.5t-44.5 -107.5t-107.5 -44.5t-107.5 44.5t-44.5 107.5zM820 90q-2 7 -9 25q-28 72 -85 124.5t-132 73.5q46 24 74 68.5t27 98.5q0 78 -55 133t-133 55
t-133.5 -55t-55.5 -133q0 -53 28 -98t74 -69q-80 -22 -139.5 -80t-84.5 -137q0 -1 -0.5 -3t-1.5 -3q-56 59 -87.5 136t-31.5 162q0 117 58 216.5t157.5 157.5t216.5 58t216.5 -58t157.5 -157.5t58 -217.5q0 -84 -31.5 -161t-87.5 -136z" />
    <glyph glyph-name="ic_personal_selected" unicode="&#xe61a;" 
d="M981 389q0 95 -37 181.5t-99.5 149t-149 99.5t-182 37t-182 -37t-149 -99.5t-99.5 -149t-37 -181.5q0 -99 38.5 -186.5t106.5 -152.5v-1q6 -6 11 -10q64 -57 144 -88t168 -31q167 0 296 107q2 1 3 3q1 1 4.5 4t4.5 4q5 4 12 11q69 65 108 153t39 187zM816 116
q-26 72 -83.5 124.5t-132.5 73.5q46 24 74 68.5t28 98.5q0 77 -55 132t-133 55t-133 -55t-55 -132q0 -54 28 -98.5t74 -68.5q-80 -22 -140 -80.5t-85 -137.5q-1 -4 -1 -5q-57 60 -88.5 136.5t-31.5 161.5q0 87 34 167t92 138t138 92t167.5 34t167.5 -34t138 -92t92 -138
t34 -167q0 -86 -31.5 -162.5t-88.5 -135.5q-4 11 -9 25z" />
    <glyph glyph-name="ic_introduce_profit" unicode="&#xe61b;" 
d="M731 804q9 -5 12 -14.5t-1 -18.5q-5 -8 -14.5 -11t-18.5 1q-50 26 -98 38q-50 13 -104 13q-87 0 -164 -33t-136 -91q-59 -59 -92 -136.5t-33 -163.5t33 -163.5t91.5 -136t136 -91.5t163.5 -33t164 33t136.5 91.5t91.5 136t33 163.5q0 73 -26 146q-27 72 -75 128
q-7 9 -6.5 18.5t9.5 16.5q8 7 18 6t16 -9q55 -65 84 -144q29 -80 29 -163q0 -96 -36.5 -182.5t-102.5 -152.5t-152.5 -102.5t-183 -36.5t-183 36.5t-152.5 102.5q-64 67 -100 153.5t-36 182.5t36.5 182.5t101.5 152.5q66 66 152.5 102.5t182.5 36.5q57 0 117 -15
q59 -16 107 -43zM255 222h476v-31h-476v31zM273 424h51v-159h-51v159zM401 485h46v-220h-46v220zM535 553h45v-288h-45v288zM668 611h45v-346h-45v346z" />
    <glyph glyph-name="ic_personal_record_detailed" unicode="&#xe61d;" 
d="M712 183h-421q-12 0 -20.5 -9t-8.5 -22t8.5 -22t20.5 -9h421q12 0 20.5 9t8.5 22t-8.5 22t-20.5 9zM712 344h-421q-12 0 -20.5 -9t-8.5 -21.5t8.5 -21.5t20.5 -9h421q12 0 20.5 9t8.5 21q0 13 -8.5 22t-20.5 9zM291 445h421q12 0 20.5 9t8.5 21.5t-8.5 22t-20.5 9.5h-421
q-12 0 -20.5 -9.5t-8.5 -22t8.5 -21.5t20.5 -9zM952 585l-1 5q0 1 -0.5 2.5t-1.5 2.5v1v1l-2 2v1l-257 244v0l-7 6v0q-1 0 -2 0.5l-1 0.5q-1 1 -2 1q-5 2 -9 3v0q-2 1 -6 1h-528q-30 0 -51.5 -20.5t-21.5 -50.5v-798q0 -29 21.5 -49.5t51.5 -20.5h687q11 2 18 11t7 20
t-7 20.5t-18 11.5h-687q-8 0 -8 6v800q0 6 8 6h496v-212q0 -13 9.5 -22.5t22.5 -9.5h224v-500q3 -10 12.5 -17.5t20.5 -7.5t20.5 7.5t11.5 17.5v533q1 1 0 4zM840 612h-143v137z" />
    <glyph glyph-name="ic_personal_record" unicode="&#xe61e;" 
d="M598 -11q-48 -10 -85 -10q-104 0 -192.5 50.5t-140 137.5t-51.5 189q0 103 51.5 190t140 137t192.5 50t192.5 -50.5t139.5 -137.5t51 -189q0 -11 9 -19.5t20 -8.5q12 2 20 10t8 20q0 110 -52.5 205.5t-143 155t-200.5 70.5v20q2 21 -13.5 35.5t-36.5 14.5h-6
q-21 0 -36 -14.5t-15 -35.5v-20q-106 -15 -192.5 -75.5t-136.5 -154.5t-50 -201q0 -89 35 -169.5t94 -138.5t141 -92.5t172 -34.5q42 0 97 10q12 3 18.5 12.5t3.5 21.5t-12.5 18.5t-21.5 3.5zM515 603q-12 0 -20 -8t-8 -20v-217q0 -11 8 -19t20 -8h206q12 0 20 8t8 19
q-1 14 -9 22.5t-21 8.5h-176v186q0 12 -8 20t-20 8zM913 66h-88v48h89q9 0 16 6.5t7 16t-7 16.5t-16 7h-43l51 88q4 7 2 17q-3 9 -11 14q-8 4 -17 2q-10 -2 -14 -10l-64 -111h-37l-65 111q-4 8 -13 10q-9 3 -18 -2q-8 -5 -11 -14q-2 -8 3 -17l50 -88h-38q-9 0 -16 -7
t-7 -16.5t7 -16t16 -6.5h89v-48h-89q-9 0 -16 -6.5t-7 -16t7 -16t16 -6.5h89v-71q0 -9 7 -16t16.5 -7t16 7t6.5 16v71h89q10 0 16.5 6.5t6.5 16t-6.5 16t-16.5 6.5z" />
    <glyph glyph-name="ic_personal_regular" unicode="&#xe61f;" 
d="M324 268h-3v28q0 47 -33.5 81t-81.5 34t-82 -34t-34 -81v-28q-18 -1 -31 -14t-13 -32v-157q0 -19 13 -32.5t32 -13.5h233q19 0 32.5 13.5t13.5 32.5v157q0 19 -13.5 32.5t-32.5 13.5zM206 375q33 0 56 -23t23 -56v-28h-159v28q0 33 23.5 56t56.5 23zM333 56h-255v174h254
v-174h1zM811 173h-146q-12 0 -20 8.5t-8 19.5v2q0 12 8 20t20 8h146q12 0 20.5 -8t8.5 -20v-2q0 -11 -8.5 -19.5t-20.5 -8.5zM867 755h-658q-45 0 -77.5 -32t-32.5 -77v-141q0 -19 12.5 -29.5t24.5 -11.5l12 -1h775v-323q0 -23 -16 -39.5t-40 -16.5l-417 -1q-11 0 -18.5 -8
t-7.5 -18q0 -11 8 -19t19 -8h418q45 0 77 32t32 77v507q0 45 -32.5 77t-78.5 32zM923 553l-769 11v81q0 23 16 39.5t39 16.5h659q23 0 39.5 -16.5t16.5 -39.5v-92h-1z" />
    <glyph glyph-name="ic_personal_rainbow" unicode="&#xe620;" 
d="M227 511q-24 -59 -24 -121t24 -120q24 -56 66.5 -98.5t97.5 -65.5q56 -25 121 -25q116 0 204 78q87 78 102 192q1 10 -5 18t-15 9q-10 2 -18 -4.5t-9 -15.5q-13 -98 -87 -163t-172 -65q-108 0 -185 77t-77 184.5t77 184.5t185 77q73 0 136 -38.5t96 -103.5h-43
q-10 0 -17 -7t-7 -17t7 -17t17 -7h95q10 0 17.5 7t7.5 17v112q0 10 -7.5 17t-17 7t-17 -7t-7.5 -17v-43q-10 16 -18 25q-30 38 -66 63q-80 55 -177 55q-62 0 -120 -24q-56 -24 -98 -66q-43 -43 -66 -98zM512 -79q-95 0 -182 37t-150 100t-100 150t-37 182.5t37 182.5
t100 149.5t150 100t182.5 37.5t182.5 -37.5t149.5 -100t100 -149.5t37.5 -183q0 -95 -37.5 -182t-100.5 -150t-150 -100t-182 -37zM512.5 820q-116.5 0 -215.5 -57.5t-157 -156.5t-58 -215.5t58 -215.5t157 -157t215.5 -58t215.5 58t156.5 157t57.5 215.5t-57.5 215.5
t-156.5 156.5t-215.5 57.5zM602 354h-72v39h72q8 0 13.5 5.5t5.5 13t-5.5 13t-13.5 5.5h-34l41 71q3 7 1 14q-1 7 -8 11q-6 4 -14 2t-11 -8l-52 -90h-30l-52 90q-4 6 -11 8q-8 2 -14.5 -1.5t-8.5 -11.5q-1 -7 2 -14l41 -71h-31q-7 0 -12.5 -5.5t-5.5 -13t5.5 -13t12.5 -5.5
h73v-39h-72q-8 0 -13.5 -5t-5.5 -13t5.5 -13.5t13.5 -5.5h72v-56q0 -8 5.5 -13.5t13 -5.5t13 5.5t5.5 13.5v56h71q8 0 13.5 5.5t5.5 13.5t-5.5 13t-13.5 5v0z" />
    <glyph glyph-name="ic_personal_partner" unicode="&#xe621;" 
d="M911 274q-65 87 -167 122q36 26 56 66.5t20 84.5q0 79 -55.5 134.5t-134 55.5t-134.5 -55.5t-56 -134.5q0 -44 20 -84t56 -67q-102 -35 -167 -122q-70 -94 -70 -211q0 -11 8 -19.5t20 -8.5t20 8.5t8 19.5q0 122 86.5 208.5t208.5 86.5t208 -86.5t86 -208.5
q0 -11 8.5 -19.5t20 -8.5t20 8.5t8.5 19.5q1 116 -70 211zM629.5 680q54.5 0 93.5 -39t39 -93.5t-39 -93.5t-93.5 -39t-93.5 39t-39 93.5t39 93.5t93.5 39zM388 347q0 12 -8.5 20t-20.5 8q-47 0 -80 33t-33 80t33 80.5t80 33.5q12 0 20.5 8t8.5 20t-8.5 20t-20.5 8
q-70 0 -120 -50t-50 -120q0 -38 16.5 -73t46.5 -60q-92 -33 -148.5 -114t-56.5 -179q0 -12 8.5 -20.5t20 -8.5t20 8.5t8.5 20.5q0 105 74.5 180t180.5 75q12 1 20.5 9.5t8.5 20.5z" />
    <glyph glyph-name="ic_personal_redbag" unicode="&#xe622;" 
d="M907 638q-7 10 -19 12.5t-22 -3.5q-10 -7 -12.5 -19t3.5 -22q65 -100 65 -222q0 -82 -31 -157t-89 -133.5t-133 -89.5t-157.5 -31t-157.5 31t-133.5 89.5t-89.5 133.5t-31 157q0 121 66 223q6 10 3.5 22t-12.5 18q-10 7 -22 4.5t-18 -12.5q-74 -117 -74 -255
q0 -94 36 -182q36 -84 101 -149.5t149 -100.5q86 -37 183 -37q94 0 182 37q84 35 149.5 100.5t100.5 149.5q37 86 37 182q1 138 -74 254zM659 226h-109v58h109q12 0 20 8.5t8 20t-8 20t-20 8.5h-52l62 108q6 10 3 21q-2 11 -12.5 16.5t-21.5 3.5q-11 -3 -17 -14l-78 -136
h-46l-78 136q-5 10 -17 14q-12 3 -21 -3q-10 -6 -13 -17q-3 -12 3 -21l62 -108h-48q-11 0 -19.5 -8.5t-8.5 -20t8.5 -20t19.5 -8.5h109v-58h-109q-11 0 -19.5 -8.5t-8.5 -20t8.5 -20t19.5 -8.5h109v-86q0 -11 8.5 -19.5t20 -8.5t20 8.5t8.5 19.5v86h109q12 0 20 8.5t8 20.5
q0 11 -8.5 19.5t-20.5 8.5zM185 721zM839 721v0q-1 0 0 0v0q-67 64 -151 98t-176 34t-176.5 -34t-150.5 -98q-1 -1 -3 -2.5t-4.5 -7.5t-1.5 -12q2 -13 9 -20q67 -63 151 -97.5t175.5 -34.5t175.5 34t150 98q10 8 10 23q0 10 -8 19zM511.5 606q-148.5 0 -261.5 94
q113 95 262 95t262 -95q-114 -94 -262.5 -94z" />
    <glyph glyph-name="ic_personal_vip" unicode="&#xe623;" 
d="M951 572q-19 19 -31 38q-66 75 -151 176q-1 1 -6.5 7t-8.5 8.5t-9.5 7.5t-12.5 7.5t-14.5 5t-17.5 2.5h-371q-38 0 -75 -38q-24 -32 -82 -101q-46 -46 -100 -119q-25 -30 -26.5 -68t26.5 -77q128 -148 219 -251l151 -176q38 -38 69 -38q32 0 69 38l157 183q39 43 214 245
q25 29 26 70t-26 80zM915 463q-202 -230 -220 -251l-159 -183q-12 -18 -25 -18q-12 0 -25 18l-152 178q-45 52 -123 141t-97 115q-27 36 -6 68q15 20 104 122q13 15 44 49.5t41 48.5q12 18 25 18h373q9 0 12.5 -2.5t12.5 -15.5q17 -17 75 -84.5t84 -93.5q12 -18 31 -36
q16 -21 16 -39.5t-11 -34.5zM694 516l-183 -233l-176 233h-94v-38q20 0 32 -13l6 -6q19 -29 115 -150t117 -152q22 29 116 147.5t116 146.5l10 14q12 13 28 13v38h-87v0z" />
    <glyph glyph-name="ic_personal_gold" unicode="&#xe624;" 
d="M689 593q-15 0 -25 -10t-10 -25v-56q0 -15 10 -25t24.5 -10t25 10t10.5 25v56q0 15 -10 25t-25 10zM353 593q-14 0 -24.5 -10t-10.5 -25v-56q0 -15 10.5 -25t25 -10t24.5 10t10 25v56q1 15 -9.5 25t-25.5 10zM740 321q-12 4 -22 -2q-12 -6 -15 -18q-15 -51 -69.5 -82
t-129.5 -31q-67 0 -107.5 27.5t-57.5 85.5q-4 12 -15 18q-12 6 -22 2q-13 -4 -18.5 -15t-2.5 -23q47 -155 223 -155q97 0 167 42t91 113q3 12 -3.5 23.5t-18.5 14.5zM571 -75q83 11 155 48q94 48 157 132q65 84 86 186q18 79 7 161t-48 153q-48 93 -132 157q-84 65 -186 86
q-81 18 -160 7q-83 -11 -154 -48q-93 -48 -157 -132q-65 -84 -86 -186q-17 -80 -7 -162q10 -66 35 -125l0.5 -0.5l0.5 -0.5q24 -55 62 -104q8 -9 20 -10.5t21.5 6t11 19.5t-6.5 21q-52 67 -75 150q-7 27 -11 54q-3 22 -3 52q0 45 9 87q19 88 75 163q57 73 138 115
q36 19 82 31q28 8 53 10q26 4 53 4q45 0 87 -9q88 -19 163 -75q73 -57 115 -138q19 -36 31 -82q8 -28 10 -52q4 -20 4 -53q0 -45 -9 -87q-19 -88 -75 -163q-57 -73 -138 -114q-36 -19 -82 -32q-21 -6 -52 -10q-27 -4 -55 -4q-44 0 -86 9q-1 0 -2 0.5l-1 0.5h-1
q-54 12 -100 37q-11 5 -22.5 1.5t-16.5 -14.5q-6 -11 -2.5 -22.5t14.5 -17.5q54 -28 119 -42q80 -18 159 -7z" />
    <glyph glyph-name="ic_personal_helpcenter" unicode="&#xe625;" 
d="M511.5 859q-95.5 0 -182.5 -37t-149.5 -100t-100 -150t-37.5 -182.5t37.5 -182.5t100 -149.5t149.5 -100t183 -37.5q131 0 242.5 67.5t172.5 183.5q7 11 2 24q-3 13 -15 18q-7 4 -15 4q-20 0 -29 -17q-52 -100 -148.5 -158t-209.5 -58q-110 0 -203.5 54.5t-148 148
t-54.5 203.5t54.5 203.5t148 147.5t203.5 54t203.5 -54t147.5 -147.5t54 -203.5q0 -13 9.5 -22.5t22.5 -9.5t22.5 9.5t9.5 22.5q0 95 -37 182t-100 150t-150 100t-182.5 37zM657 496q-3 43 -27 72q-32 37 -95 41h-6q-58 0 -95.5 -31.5t-50.5 -92.5q-2 -11 4 -21q6 -9 18 -12
q1 -1 6 -1q10 0 18 6.5t10 15.5q17 80 90 80h3q34 -3 51 -18t19 -44q3 -33 -57 -75q-75 -47 -75 -128v-23q0 -12 8.5 -20t20 -8t20 8t8.5 20v23q0 50 47 80l2 1q88 61 81 127zM502 213q-14 0 -24 -10t-10 -24t10 -24t24 -10t24 10t10 24t-10 24t-24 10z" />
    <glyph glyph-name="ic_personal_tell" unicode="&#xe626;" 
d="M872 127h1l-3 4q-4 10 -11 20q-4 5 -5 8q-53 80 -79 89q-37 19 -78 0q-45 -22 -61 -49q-14 -23 -26 -17q-45 17 -82 46.5t-82 97.5l-2 4q-45 68 -57.5 114t-10.5 94q0 4 1 6.5t7.5 5.5t18.5 5q31 4 68 36q34 30 31 72q2 28 -51 108q-19 29 -37 48.5t-25.5 24.5t-12.5 7
q-39 19 -91 -5t-91 -79v-2q-65 -123 18 -333q34 -84 78 -152l2 -3q2 -4 13 -19q9 -15 10 -15q1 -1 2 -3t3.5 -6t4.5 -7l6 -9t7 -10l2 -3q42 -64 109 -133q149 -149 279 -149q13 0 20 1h1q30 6 64 21q3 1 7.5 3.5t7.5 3.5l5 2l-1 1q10 8 10 22v0q0 12 -8.5 20.5t-20.5 8.5
q-7 0 -14 -4q-44 -17 -59 -21q-51 -4 -104 22q-33 16 -68 41q-36 27 -78 69q-61 61 -102 123l-50 76q-41 62 -73 142q-21 57 -31 99t-11 78q-1 61 21 104q30 41 64 57q27 13 42 6h2q18 -11 51 -60q32 -50 39 -73l2 -6q0 -14 -12 -24q-23 -21 -36 -23q-40 -4 -60 -26
q-16 -17 -18 -46q-2 -57 10 -103q12 -45 45 -102l-1 -1l49 -75l1 1q38 -51 76 -81q37 -30 91 -51q27 -9 50 -1q28 10 48 44q6 11 35 24q15 7 27 1l5 -3q20 -20 66 -88l2 -4h1q8 -10 21 -10h1q11 0 20 8.5t9 20.5q-1 1 -1 3.5t-1 3.5z" />
    <glyph glyph-name="ic_safeGuarantee" unicode="&#xe62a;" 
d="M873 716q-17 16 -39 16h-2.5h-1.5q-5 -1 -25 -1q-65 0 -117 13q-26 6 -56.5 25.5t-58 42.5t-30.5 24q-15 10 -32 10v0q-20 0 -33 -10q-2 -1 -19 -16.5t-32.5 -28.5t-41 -27.5t-48.5 -19.5q-52 -13 -118 -13q-20 0 -25 1h-4q-23 0 -40 -16q-18 -17 -18 -42v-145
q0 -110 20 -202.5t49.5 -153t71 -108.5t76 -73.5t72.5 -43t53.5 -22t25.5 -6.5q6 -1 10.5 -1t10.5 1q10 2 25.5 6.5t54 22.5t73.5 43t76.5 73t71.5 108.5t50 153t20 202.5v145v0q0 25 -19 42zM855 538q0 -346 -189 -506q-78 -65 -156 -82v0q-4 1 -11.5 3t-31 11t-46 21.5
t-53.5 36.5t-57.5 54t-53 76t-45.5 99.5t-31 128t-12 158.5v155q11 -1 31 -1q78 0 140 16q38 9 81 36t66 49l24 22q9 -9 26 -24t63 -44.5t85 -38.5q63 -16 139 -16l31 1v-155zM726 478q11 11 13 25t-7 25q-11 10 -25 8t-25 -13l-226 -227l-114 114q-11 11 -25 13t-25 -8
q-10 -10 -7.5 -24t12.5 -25l134 -134q10 -10 24.5 -10t24.5 10z" />
    <glyph glyph-name="ic_safeGuarantee_selected" unicode="&#xe62b;" 
d="M873 718q-17 15 -40 15h-4h-3.5h-9h-12.5q-64 0 -117 13q-25 6 -56 25.5t-58 42t-31 24.5q-14 10 -32 10q-21 0 -33 -10q-1 -1 -18.5 -17t-32.5 -28.5t-40.5 -27t-48.5 -19.5q-50 -13 -118 -13h-9h-6.5h-5h-3.5h-1h-4q-22 0 -40 -15q-18 -19 -18 -43v-146
q0 -109 20 -201.5t50 -153t71 -108.5t76 -73.5t72.5 -43.5t54 -22.5t25.5 -5.5q6 -1 10 -1q3 0 10 1q10 1 26 5.5t54 22.5t73.5 43t76.5 73.5t71 108.5t50.5 153t20.5 202v146q-2 27 -20 43zM725 480l-246 -246q-11 -10 -25.5 -10t-24.5 10l-133 133q-11 11 -13.5 25t7.5 25
q11 10 25 8t25 -13l115 -114l226 227q11 11 25 13t25 -8q10 -11 7.5 -25t-13.5 -25z" />
    <glyph glyph-name="ic_introduce_guarantee1" unicode="&#xe62c;" 
d="M370 367l33 27l66 -49l27.5 27.5t65.5 55t87 57.5l13 -15q-5 -3 -13 -10t-30 -30t-42 -46.5t-43.5 -58.5t-39.5 -70zM741 797q9 -5 12 -14.5t-1.5 -18.5t-14.5 -12t-19 2q-49 26 -97 38q-50 12 -104 12q-87 0 -164.5 -32.5t-136.5 -91.5t-92 -136t-33 -163t33 -164
t91.5 -137t136 -91.5t164 -32.5t164 32.5t136.5 91.5t92 136.5t33 164.5q0 76 -26 147t-75 128q-7 8 -6 18t9 17q8 6 18 5t16 -8q55 -65 84 -144t29 -163q0 -97 -36.5 -183.5t-102.5 -152.5q-66 -65 -152.5 -102t-182.5 -37q-97 0 -183.5 37t-151.5 102q-66 66 -102.5 152.5
t-36.5 183t36.5 183t102.5 151.5q65 66 151.5 102.5t183.5 36.5q60 0 116 -14t109 -43zM736 544q0 15 -11.5 26t-26.5 11v0q-95 2 -157 44q0 1 -3 2l-1 1t-2 1q-10 6 -20 6q-6 0 -12 -2.5t-9 -4.5l-3 -2q-60 -45 -159 -46v-1h1q-15 0 -26 -10.5t-11 -25.5v-1q0 -3 1 -4v-211
q0 -23 3.5 -43t16.5 -47.5t35 -50.5t63 -49t95 -47l7 -2l6 2q55 21 95.5 47t62.5 49t35 50.5t16.5 47.5t3.5 43v217v0zM552 599v3v-3v0zM552 603v2v-2zM706 328q0 -17 -1 -29t-11 -38t-28.5 -47t-57.5 -47t-93 -48q-54 22 -92.5 48.5t-56.5 47t-28 46.5t-11.5 38t-1.5 29
v180h-1v44q17 0 43 2q63 7 113 33q16 7 35 22q10 -8 35 -22q48 -26 112 -32q17 -2 44 -2v-45v-180z" />
    <glyph glyph-name="ic_recharge" unicode="&#xe62d;" 
d="M675 360q13 0 22 8t9 19q0 12 -9 20t-22 8h-139v13l138 133q8 9 7 20q0 12 -11 19q-8 7 -20 7q-15 0 -24 -9l-122 -118l-115 118q-9 10 -24 10q-11 0 -19 -6q-11 -9 -12 -20t7 -20l132 -135v-13h-124q-13 0 -22 -8t-9 -19q0 -12 9 -20t22 -8h124v-80h-124q-13 0 -22 -8
t-9 -20q0 -11 9 -19t22 -8h124v-89q0 -11 9 -19.5t22 -8.5t22 8t9 20v89h139q13 0 22.5 8t9.5 20q0 11 -9.5 19.5t-22.5 8.5h-139v80h140zM752 636h72v-72q0 -9 7.5 -15.5t18.5 -6.5t19 6.5t8 15.5v72h71q9 0 15.5 8t6.5 18.5t-6.5 18.5t-15.5 8h-71v72q0 9 -8 15.5t-19 6.5
t-18.5 -6.5t-7.5 -15.5v-72h-72q-9 0 -15.5 -8t-6.5 -19t6 -18.5t16 -7.5zM971 505q-2 10 -9.5 15.5t-17.5 5.5h-7q-11 -3 -17 -13t-3 -21q12 -50 12 -102q0 -114 -55.5 -210t-152 -152t-210 -56t-209.5 56t-152 152t-56 209.5t56 210t152 152.5t210 56q91 0 175 -39
q5 -2 12 -2q17 0 25 16q5 11 1 21q-4 11 -15 16q-95 43 -199 43q-95 0 -181.5 -35.5t-153.5 -102.5t-102.5 -153.5t-35.5 -181t36 -181.5t102 -153q68 -68 154 -103.5t181 -35.5t181.5 36t153.5 103t102.5 153t35.5 181q2 56 -13 115z" />
    <glyph glyph-name="ic_withdraw" unicode="&#xe62e;" 
d="M668 357q13 0 22.5 8.5t9.5 19.5t-9.5 19.5t-22.5 8.5h-139v13l138 133q9 8 8 20q-1 11 -12 19q-8 7 -20 7q-14 0 -24 -9l-122 -119l-115 118q-10 10 -24 10q-12 0 -20 -6q-11 -9 -12 -20t7 -20l131 -136v-12h-124q-13 0 -22.5 -8.5t-9.5 -19.5t9.5 -19.5t22.5 -8.5h124
v-80h-124q-13 0 -22.5 -8.5t-9.5 -19.5t9.5 -19.5t22.5 -8.5h124v-89q0 -11 9.5 -19t22.5 -8t22.5 8t9.5 19v89h139q13 0 22.5 8.5t9.5 19.5t-9.5 19.5t-22.5 8.5h-139v80zM745 635h197q9 0 15.5 7.5t6.5 18.5t-6.5 19t-15.5 8h-197q-9 0 -15.5 -8t-6.5 -19t6.5 -18.5
t15.5 -7.5zM966 503q-3 10 -10.5 16t-16.5 6q-5 0 -7 -1q-11 -3 -17 -13t-4 -21q13 -50 13 -103q0 -113 -56 -209.5t-152.5 -153t-210.5 -56.5t-210.5 56.5t-152.5 153t-56 210t56 210t152.5 152.5t210.5 56q92 0 176 -38q5 -3 12 -3q18 0 25 17q5 11 1 21t-15 15
q-95 44 -200 44q-95 0 -181.5 -35.5t-154 -103t-103.5 -154t-36 -182t36 -182t103.5 -154t154 -103.5t182 -36t182 36t154 103.5t103 154t35.5 181.5q1 58 -13 116z" />
    <glyph glyph-name="ic_rightarrow" unicode="&#xe62f;" 
d="M777 373l-81 81l-349 349l-81 -82l349 -348l-348 -314l81 -82l348 315l81 81v0z" />
    <glyph glyph-name="ic_personal_zz" unicode="&#xe630;" 
d="M905 634q-6 10 -17.5 12.5t-22.5 -4.5q-10 -6 -12.5 -18t4.5 -22q65 -101 65 -222q0 -82 -31 -156.5t-89 -132.5t-133 -89t-157 -31t-156.5 31t-132.5 89q-58 57 -89 132t-31 157q0 121 66 222q6 10 3.5 22t-12.5 18.5t-21.5 4t-18.5 -12.5q-75 -116 -75 -253
q0 -95 37 -182q35 -84 100 -149t148 -100q86 -36 182 -36q95 0 182 36q84 35 149 100t100 149q36 86 36 182q0 137 -74 253zM186 716zM838 716l-1 1q-66 63 -149.5 97t-175.5 34q-91 0 -175 -34t-150 -97l-3 -3t-4.5 -8t-1.5 -12q0 -4 1 -7t2.5 -5.5t3 -4l1.5 -1.5l1 -1
q66 -64 150 -97.5t175 -33.5q92 0 175.5 34t149.5 97q9 9 9 22q-1 11 -8 19zM512 602q-148 0 -262 94q114 93 262 93t261 -93q-113 -94 -261 -94zM739 391l-142 100q-12 9 -29 8t-27.5 -11t-9.5 -23.5t13 -21.5l62 -44h-297q-16 0 -28 -9.5t-12 -23t12 -23t28 -9.5h403
q19 0 30 11q12 10 11 23.5t-14 22.5zM284 222l142 -101q12 -8 28.5 -7.5t27.5 10.5t10 23.5t-13 22.5l-62 43h297q16 0 28 9.5t12 23t-12 23t-28 9.5h-402h-1q-19 0 -30 -10q-12 -10 -11 -23.5t14 -22.5z" />
  </font>
</defs>
</svg>
